<?xml version="1.0" standalone="no"?>
 <!DOCTYPE svg PUBLIC "-//W3C//DTD SVG 1.1//EN" 
 "http://www.w3.org/Graphics/SVG/1.1/DTD/svg11.dtd"> 
<svg
  xmlns:svg="http://www.w3.org/2000/svg"
  xmlns="http://www.w3.org/2000/svg"
  xmlns:xlink="http://www.w3.org/1999/xlink"
  version="1.1"
  width="297.0022mm" height="210.0072mm" viewBox="0.0000 0.0000 297.0022 210.0072">
<title>SVG Image created as pcb-power-2-F_Cu.svg date 2026/03/03 19:53:21 </title>
  <desc>Image generated by PCBNEW </desc>
<g style="fill:#000000; fill-opacity:1.0000;stroke:#000000; stroke-opacity:1.0000;
stroke-linecap:round; stroke-linejoin:round;"
 transform="translate(0 0) scale(1 1)">
</g>
<g style="fill:#000000; fill-opacity:1.0000; stroke:none;">
<circle cx="157.6722" cy="90.5000" r="0.8000" /> 
</g>
<g style="fill:#000000; fill-opacity:1.0000; stroke:none;">
<circle cx="167.8322" cy="90.5000" r="0.8000" /> 
<path style="fill:#000000; fill-opacity:1.0000; stroke:none;fill-rule:evenodd;"
d="M 162.3522,60.0250
162.3332,59.9293
162.2790,59.8482
162.1979,59.7940
162.1022,59.7750
160.9022,59.7750
160.8065,59.7940
160.7254,59.8482
160.6712,59.9293
160.6522,60.0250
160.6522,61.4750
160.6712,61.5707
160.7254,61.6518
160.8065,61.7060
160.9022,61.7250
162.1022,61.7250
162.1979,61.7060
162.2790,61.6518
162.3332,61.5707
162.3522,61.4750
Z" /> 
</g>
<g style="fill:none; 
stroke:#000000; stroke-width:1.7000; stroke-opacity:1; 
stroke-linecap:round; stroke-linejoin:round;">
<path d="M159.0022 60.6250
L159.0022 60.8750
" />
<path d="M156.5022 60.6250
L156.5022 60.8750
" />
<path d="M154.0022 60.6250
L154.0022 60.8750
" />
</g>
<g style="fill:#000000; fill-opacity:1.0000; stroke:none;">
<circle cx="169.0022" cy="104.1600" r="0.8000" /> 
</g>
<g style="fill:#000000; fill-opacity:1.0000; stroke:none;">
<circle cx="169.0022" cy="94.0000" r="0.8000" /> 
<path style="fill:#000000; fill-opacity:1.0000; stroke:none;fill-rule:evenodd;"
d="M 161.1022,52.2750
161.0832,52.1793
161.0290,52.0982
160.9479,52.0440
160.8522,52.0250
159.6522,52.0250
159.5565,52.0440
159.4754,52.0982
159.4212,52.1793
159.4022,52.2750
159.4022,53.7250
159.4212,53.8207
159.4754,53.9018
159.5565,53.9560
159.6522,53.9750
160.8522,53.9750
160.9479,53.9560
161.0290,53.9018
161.0832,53.8207
161.1022,53.7250
Z" /> 
</g>
<g style="fill:none; 
stroke:#000000; stroke-width:1.7000; stroke-opacity:1; 
stroke-linecap:round; stroke-linejoin:round;">
<path d="M157.7522 52.8750
L157.7522 53.1250
" />
<path d="M155.2522 52.8750
L155.2522 53.1250
" />
<path style="fill:#000000; fill-opacity:1.0000; stroke:none;fill-rule:evenodd;"
d="M 150.2522,102.0400
153.2522,102.0400
153.2522,99.0400
150.2522,99.0400
Z" /> 
</g>
<g style="fill:#000000; fill-opacity:1.0000; stroke:none;">
<circle cx="151.7522" cy="95.4600" r="1.5000" /> 
<path style="fill:#000000; fill-opacity:1.0000; stroke:none;fill-rule:evenodd;"
d="M 149.8022,69.0500
149.8979,69.0310
149.9790,68.9768
150.0332,68.8957
150.0522,68.8000
150.0522,67.7000
150.0332,67.6043
149.9790,67.5232
149.8979,67.4690
149.8022,67.4500
148.7022,67.4500
148.6065,67.4690
148.5254,67.5232
148.4712,67.6043
148.4522,67.7000
148.4522,68.8000
148.4712,68.8957
148.5254,68.9768
148.6065,69.0310
148.7022,69.0500
Z" /> 
</g>
<g style="fill:#000000; fill-opacity:1.0000; stroke:none;">
<circle cx="149.2522" cy="66.2500" r="0.8000" /> 
</g>
<g style="fill:#000000; fill-opacity:1.0000; stroke:none;">
<circle cx="154.8322" cy="91.2500" r="0.8000" /> 
</g>
<g style="fill:#000000; fill-opacity:1.0000; stroke:none;">
<circle cx="144.6722" cy="91.2500" r="0.8000" /> 
<path style="fill:#000000; fill-opacity:1.0000; stroke:none;fill-rule:evenodd;"
d="M 159.8522,66.9750
159.8332,66.8793
159.7790,66.7982
159.6979,66.7440
159.6022,66.7250
158.4022,66.7250
158.3065,66.7440
158.2254,66.7982
158.1712,66.8793
158.1522,66.9750
158.1522,68.4750
158.1712,68.5707
158.2254,68.6518
158.3065,68.7060
158.4022,68.7250
159.6022,68.7250
159.6979,68.7060
159.7790,68.6518
159.8332,68.5707
159.8522,68.4750
Z" /> 
</g>
<g style="fill:none; 
stroke:#000000; stroke-width:1.7000; stroke-opacity:1; 
stroke-linecap:round; stroke-linejoin:round;">
<path d="M156.5022 67.5750
L156.5022 67.8750
" />
</g>
<g style="fill:#000000; fill-opacity:1.0000; stroke:none;">
<circle cx="166.0022" cy="60.0800" r="0.8000" /> 
</g>
<g style="fill:#000000; fill-opacity:1.0000; stroke:none;">
<circle cx="166.0022" cy="49.9200" r="0.8000" /> 
</g>
<g style="fill:#000000; fill-opacity:1.0000; stroke:none;">
<circle cx="144.7522" cy="62.4200" r="0.8000" /> 
</g>
<g style="fill:#000000; fill-opacity:1.0000; stroke:none;">
<circle cx="144.7522" cy="72.5800" r="0.8000" /> 
</g>
<g style="fill:#000000; fill-opacity:1.0000; stroke:none;">
<circle cx="145.0922" cy="76.7500" r="0.8000" /> 
</g>
<g style="fill:#000000; fill-opacity:1.0000; stroke:none;">
<circle cx="155.2522" cy="76.7500" r="0.8000" /> 
<path style="fill:#000000; fill-opacity:1.0000; stroke:none;fill-rule:evenodd;"
d="M 158.5022,102.0400
161.5022,102.0400
161.5022,99.0400
158.5022,99.0400
Z" /> 
</g>
<g style="fill:#000000; fill-opacity:1.0000; stroke:none;">
<circle cx="160.0022" cy="95.4600" r="1.5000" /> 
</g>
<g style="fill:#000000; fill-opacity:1.0000; stroke:none;">
<circle cx="165.5022" cy="65.1700" r="0.8000" /> 
</g>
<g style="fill:#000000; fill-opacity:1.0000; stroke:none;">
<circle cx="165.5022" cy="75.3300" r="0.8000" /> 
</g>
<g style="fill:#000000; fill-opacity:1.0000; stroke:none;">
<circle cx="168.0022" cy="85.0800" r="0.8000" /> 
</g>
<g style="fill:#000000; fill-opacity:1.0000; stroke:none;">
<circle cx="168.0022" cy="74.9200" r="0.8000" /> 
</g>
<g style="fill:#000000; fill-opacity:1.0000; stroke:none;">
<circle cx="159.3322" cy="49.5000" r="0.8000" /> 
</g>
<g style="fill:#000000; fill-opacity:1.0000; stroke:none;">
<circle cx="149.1722" cy="49.5000" r="0.8000" /> 
<path style="fill:#000000; fill-opacity:1.0000; stroke:none;fill-rule:evenodd;"
d="M 167.8522,67.1500
166.1522,67.1500
166.1522,68.8500
167.8522,68.8500
Z" /> 
</g>
<g style="fill:#000000; fill-opacity:1.0000; stroke:none;">
<circle cx="164.4622" cy="68.0000" r="0.8500" /> 
</g>
<g style="fill:#000000; fill-opacity:1.0000; stroke:none;">
<circle cx="168.0022" cy="66.0800" r="0.8000" /> 
</g>
<g style="fill:#000000; fill-opacity:1.0000; stroke:none;">
<circle cx="168.0022" cy="55.9200" r="0.8000" /> 
</g>
<g style="fill:#000000; fill-opacity:1.0000; stroke:none;">
<circle cx="169.2522" cy="53.2500" r="0.8000" /> 
</g>
<g style="fill:#000000; fill-opacity:1.0000; stroke:none;">
<circle cx="151.2522" cy="55.7500" r="0.8000" /> 
</g>
<g style="fill:#000000; fill-opacity:1.0000; stroke:none;">
<circle cx="161.1637" cy="87.6615" r="0.8000" /> 
</g>
<g style="fill:none; 
stroke:#000000; stroke-width:1.0000; stroke-opacity:1; 
stroke-linecap:round; stroke-linejoin:round;">
<path d="M161.5022 60.7500
L161.5022 62.0000
" />
<path d="M166.0022 53.5000
L166.0022 49.9200
" />
<path d="M161.5022 60.7500
L161.5022 58.0000
" />
<path d="M155.2522 68.2500
L149.1722 62.1700
" />
<path d="M161.5022 58.0000
L166.0022 53.5000
" />
<path d="M155.2522 68.2500
L150.9222 72.5800
" />
<path d="M149.1722 62.1700
L149.1722 49.5000
" />
<path d="M150.9222 72.5800
L144.7522 72.5800
" />
<path d="M161.5022 62.0000
L155.2522 68.2500
" />
</g>
<g style="fill:none; 
stroke:#000000; stroke-width:0.8000; stroke-opacity:1; 
stroke-linecap:round; stroke-linejoin:round;">
<path d="M163.7522 49.5000
L165.1012 48.1510
" />
<path d="M165.1012 48.1510
L166.7522 48.1510
" />
<path d="M163.7522 52.7500
L163.7522 49.5000
" />
<path d="M151.2522 55.7500
L151.9032 56.4010
" />
<path d="M160.1012 56.4010
L163.7522 52.7500
" />
<path d="M166.7522 48.1510
L169.2522 50.6510
" />
<path d="M151.9032 56.4010
L160.1012 56.4010
" />
<path d="M169.2522 50.6510
L169.2522 53.2500
" />
<path d="M170.2522 61.5000
L170.2522 58.1700
" />
<path d="M165.5022 65.1700
L166.5822 65.1700
" />
<path d="M170.2522 58.1700
L168.0022 55.9200
" />
<path d="M166.5822 65.1700
L170.2522 61.5000
" />
</g>
<g style="fill:none; 
stroke:#000000; stroke-width:1.0000; stroke-opacity:1; 
stroke-linecap:round; stroke-linejoin:round;">
<path d="M161.0022 75.0010
L144.7532 91.2500
" />
<path d="M161.0022 75.0010
L161.0022 65.0800
" />
<path d="M161.0022 65.0800
L166.0022 60.0800
" />
</g>
<g style="fill:none; 
stroke:#000000; stroke-width:0.8000; stroke-opacity:1; 
stroke-linecap:round; stroke-linejoin:round;">
<path d="M161.1637 87.6615
L162.3407 87.6615
" />
<path d="M162.3407 87.6615
L168.0022 82.0000
" />
<path d="M168.0022 74.9200
L168.0022 82.0000
" />
<path style="fill:#000000; fill-opacity:1.0000; stroke:none;fill-rule:evenodd;"
d="M 146.8097,47.7702
146.7639,47.8230
146.7527,47.8745
146.7527,55.3159
146.7186,55.4432
146.7173,55.4455
146.6527,55.5573
146.5595,55.6505
146.4454,55.7164
146.3181,55.7505
144.3767,55.7505
144.3097,55.7702
144.2639,55.8230
144.2527,55.8745
144.2527,61.0442
144.2724,61.1112
144.3252,61.1570
144.3943,61.1669
144.4150,61.1621
144.4477,61.1515
144.4477,61.1515
144.6025,61.1270
144.6498,61.1195
144.8546,61.1195
144.8789,61.1234
145.0567,61.1515
145.2514,61.2148
145.4338,61.3077
145.5994,61.4280
145.7442,61.5728
145.8645,61.7384
145.9574,61.9208
146.0207,62.1155
146.0527,62.3176
146.0527,62.5224
146.0207,62.7245
145.9574,62.9192
145.8645,63.1016
145.7442,63.2672
145.5994,63.4120
145.4445,63.5246
145.4338,63.5323
145.3176,63.5915
145.2514,63.6252
145.2514,63.6252
145.2514,63.6252
145.1471,63.6591
145.0567,63.6885
144.9556,63.7045
144.8546,63.7205
144.8546,63.7205
144.6498,63.7205
144.6498,63.7205
144.4477,63.6885
144.4477,63.6885
144.4477,63.6885
144.4150,63.6779
144.3452,63.6759
144.2853,63.7120
144.2545,63.7747
144.2527,63.7958
144.2527,71.2047
144.2724,71.2718
144.3252,71.3175
144.3943,71.3275
144.4150,71.3227
144.4478,71.3120
144.4478,71.3120
144.6499,71.2800
144.8545,71.2800
145.0566,71.3120
145.2512,71.3752
145.4336,71.4681
145.4781,71.5005
145.4781,71.5005
144.7986,72.1800
144.8049,72.1800
144.9066,72.2073
144.9978,72.2599
145.0723,72.3344
145.1249,72.4256
145.1522,72.5273
145.1522,72.5336
145.8317,71.8541
145.8317,71.8541
145.8641,71.8986
145.9570,72.0810
146.0202,72.2756
146.0522,72.4777
146.0522,72.6823
146.0202,72.8844
145.9570,73.0790
145.8641,73.2613
145.8641,73.2614
145.8317,73.3059
145.8317,73.3059
145.1522,72.6264
145.1522,72.6327
145.1249,72.7344
145.0723,72.8256
144.9978,72.9001
144.9066,72.9527
144.8049,72.9800
144.7986,72.9800
145.4781,73.6595
145.4335,73.6919
145.2512,73.7848
145.0566,73.8480
144.8545,73.8800
144.6499,73.8800
144.4478,73.8480
144.4478,73.8480
144.4150,73.8373
144.3452,73.8353
144.2853,73.8714
144.2545,73.9341
144.2527,73.9553
144.2527,75.5164
144.2724,75.5834
144.3252,75.6292
144.3943,75.6391
144.4330,75.6269
144.5932,75.5452
144.7878,75.4820
144.9899,75.4500
145.1945,75.4500
145.3966,75.4820
145.5912,75.5452
145.7736,75.6381
145.8181,75.6705
145.8181,75.6705
145.1386,76.3500
145.1449,76.3500
145.2466,76.3773
145.3378,76.4299
145.4123,76.5044
145.4649,76.5956
145.4922,76.6973
145.4922,76.7036
146.1717,76.0241
146.1717,76.0241
146.2041,76.0686
146.2970,76.2510
146.3602,76.4456
146.3922,76.6477
146.3922,76.8523
146.3602,77.0544
146.2970,77.2490
146.2041,77.4313
146.2041,77.4314
146.1717,77.4759
146.1717,77.4759
145.4922,76.7964
145.4922,76.8027
145.4649,76.9044
145.4123,76.9956
145.3378,77.0701
145.2466,77.1227
145.1449,77.1500
145.1386,77.1500
145.8181,77.8295
145.7736,77.8619
145.5912,77.9548
145.3966,78.0180
145.1945,78.0500
144.9899,78.0500
144.7878,78.0180
144.5932,77.9548
144.4330,77.8731
144.3643,77.8602
144.2996,77.8865
144.2593,77.9436
144.2527,77.9836
144.2527,89.8545
144.2576,89.8713
144.2575,89.8888
144.2673,89.9041
144.2724,89.9216
144.2856,89.9330
144.2950,89.9478
144.3115,89.9554
144.3252,89.9673
144.3426,89.9699
144.3583,89.9772
144.3913,89.9770
144.3936,89.9774
144.3949,89.9772
144.5698,89.9495
144.5959,89.9495
144.6043,89.9483
144.6288,89.9374
144.6545,89.9298
144.6657,89.9207
144.6681,89.9197
144.6692,89.9179
144.6751,89.9132
157.9406,76.6476
156.5527,76.6476
156.5527,76.8524
156.5207,77.0545
156.4574,77.2492
156.3935,77.3747
156.3646,77.4314
156.3645,77.4316
156.2442,77.5972
156.0994,77.7420
155.9790,77.8295
155.9338,77.8623
155.8176,77.9215
155.7514,77.9552
155.7514,77.9552
155.7514,77.9552
155.6640,77.9836
155.5567,78.0185
155.4556,78.0345
155.3546,78.0505
155.3546,78.0505
155.1498,78.0505
155.1498,78.0505
154.9477,78.0185
154.7530,77.9552
154.5706,77.8623
154.4776,77.7947
154.4050,77.7420
154.4050,77.7420
154.4050,77.7420
154.2602,77.5972
154.2602,77.5972
154.2602,77.5972
154.2075,77.5246
154.1399,77.4316
154.0470,77.2492
153.9837,77.0545
153.9517,76.8524
153.9517,76.6476
153.9696,76.5348
153.9837,76.4455
154.0147,76.3500
154.0470,76.2508
154.0470,76.2508
154.0470,76.2508
154.0807,76.1846
154.1399,76.0684
154.1813,76.0114
154.2602,75.9028
154.4050,75.7580
154.5706,75.6377
154.5706,75.6377
154.5706,75.6377
154.6414,75.6016
154.7530,75.5448
154.9477,75.4815
155.1222,75.4539
155.1498,75.4495
155.3546,75.4495
155.3789,75.4534
155.5567,75.4815
155.7514,75.5448
155.9338,75.6377
156.0994,75.7580
156.2442,75.9028
156.3645,76.0684
156.4574,76.2508
156.5207,76.4455
156.5527,76.6476
157.9406,76.6476
159.9654,74.6229
159.9989,74.5616
160.0017,74.5352
160.0017,69.3050
159.9820,69.2379
159.9292,69.1922
159.8601,69.1822
159.8387,69.1873
159.7550,69.2150
159.6522,69.2255
158.3522,69.2255
158.2494,69.2150
158.0829,69.1598
157.9335,69.0677
157.8095,68.9437
157.7174,68.7943
157.7174,68.7943
157.7138,68.7884
157.6618,68.7417
157.5928,68.7305
157.5288,68.7583
157.5205,68.7659
157.3817,68.9047
157.3817,68.9047
157.2098,69.0296
157.0204,69.1261
156.8183,69.1918
156.7522,69.2022
156.7522,68.1580
156.6952,68.1909
156.5680,68.2250
156.4364,68.2250
156.3092,68.1909
156.2522,68.1580
156.2522,69.2022
156.1861,69.1918
156.1861,69.1918
155.9840,69.1261
155.7946,69.0296
155.6227,68.9047
155.6227,68.9047
155.4725,68.7545
155.4725,68.7545
155.3476,68.5826
155.2511,68.3932
155.1854,68.1911
155.1854,68.1911
155.1522,67.9812
155.1522,67.9750
156.0692,67.9750
156.0363,67.9180
156.0022,67.7908
156.0022,67.6592
156.0363,67.5320
156.0692,67.4750
155.1522,67.4750
155.1522,67.4688
155.1854,67.2589
155.1854,67.2589
155.2511,67.0568
155.3476,66.8674
155.4725,66.6955
155.4725,66.6955
155.6227,66.5453
155.6227,66.5453
155.7946,66.4204
155.9840,66.3239
156.1475,66.2708
156.2522,66.2920
156.2522,67.2920
156.3092,67.2591
156.4364,67.2250
156.5680,67.2250
156.6952,67.2591
156.7522,67.2920
156.7522,66.2478
156.7522,66.2478
156.8183,66.2582
157.0204,66.3239
157.2098,66.4204
157.3817,66.5453
157.5205,66.6841
157.5819,66.7176
157.6515,66.7126
157.7075,66.6708
157.7138,66.6616
157.8095,66.5063
157.9335,66.3823
157.9335,66.3823
158.0282,66.3239
158.0829,66.2902
158.0829,66.2902
158.1067,66.2823
158.2494,66.2350
158.2494,66.2350
158.3522,66.2245
159.6522,66.2245
159.6522,66.2245
159.7550,66.2350
159.7550,66.2350
159.8387,66.2627
159.9085,66.2651
159.9686,66.2294
159.9998,66.1669
160.0015,66.1476
150.5527,66.1476
150.5527,66.3524
150.5207,66.5545
150.4574,66.7492
150.4084,66.8454
150.3645,66.9316
150.3131,67.0023
150.3131,67.0023
150.2896,67.0681
150.3055,67.1362
150.3257,67.1629
150.3945,67.2317
150.4866,67.3809
150.4866,67.3809
150.5417,67.5473
150.5417,67.5473
150.5522,67.6500
150.5522,68.0000
149.5679,68.0000
149.5723,68.0044
149.6249,68.0956
149.6522,68.1973
149.6522,68.3027
149.6249,68.4044
149.5723,68.4956
149.5679,68.5000
150.5522,68.5000
150.5522,68.8500
150.5417,68.9527
150.4866,69.1191
150.4866,69.1191
150.3945,69.2683
150.2705,69.3923
150.1213,69.4844
150.1213,69.4844
149.9549,69.5395
149.9549,69.5395
149.8522,69.5500
149.5022,69.5500
149.5022,69.5500
149.5022,68.5657
149.4978,68.5701
149.4066,68.6227
149.3049,68.6500
149.1995,68.6500
149.0978,68.6227
149.0066,68.5701
149.0022,68.5657
149.0022,69.5500
148.6522,69.5500
148.6522,69.5500
148.5495,69.5395
148.3831,69.4844
148.3831,69.4844
148.2339,69.3923
148.1099,69.2683
148.0178,69.1191
148.0178,69.1191
147.9627,68.9527
147.9627,68.9527
147.9522,68.8500
147.9522,68.8500
147.9522,68.5000
148.9365,68.5000
148.9321,68.4956
148.8795,68.4044
148.8522,68.3027
148.8522,68.1973
148.8795,68.0956
148.9321,68.0044
148.9365,68.0000
147.9522,68.0000
147.9522,67.6500
147.9522,67.6500
147.9627,67.5473
148.0178,67.3809
148.0178,67.3809
148.1099,67.2317
148.1787,67.1629
148.2121,67.1016
148.2072,67.0319
148.1913,67.0023
148.1399,66.9316
148.0470,66.7492
147.9837,66.5545
147.9517,66.3524
147.9517,66.1476
147.9629,66.0771
147.9837,65.9455
148.0390,65.7755
148.0470,65.7508
148.0470,65.7508
148.0470,65.7508
148.0807,65.6846
148.1399,65.5684
148.1937,65.4944
148.2602,65.4028
148.4050,65.2580
148.5706,65.1377
148.5706,65.1377
148.5706,65.1377
148.6681,65.0880
148.7530,65.0448
148.9477,64.9815
149.1222,64.9539
149.1498,64.9495
149.3546,64.9495
149.3789,64.9534
149.5567,64.9815
149.7514,65.0448
149.9338,65.1377
150.0994,65.2580
150.2442,65.4028
150.3645,65.5684
150.4574,65.7508
150.5207,65.9455
150.5527,66.1476
160.0015,66.1476
160.0017,66.1450
160.0017,64.9815
160.0401,64.7882
160.0401,64.7882
160.0401,64.7882
160.0737,64.7071
160.1156,64.6061
160.1156,64.6061
160.2251,64.4422
160.2251,64.4422
160.3675,64.2998
160.3675,64.2997
162.2306,62.4367
162.2641,62.3754
162.2591,62.3057
162.2172,62.2497
162.1518,62.2253
162.1429,62.2250
161.7522,62.2250
161.7522,62.2250
161.7522,61.1541
161.6855,61.1926
161.5647,61.2250
161.4397,61.2250
161.3189,61.1926
161.2522,61.1541
161.2522,62.2250
160.8522,62.2250
160.8522,62.2250
160.7495,62.2145
160.5831,62.1594
160.5831,62.1594
160.4339,62.0673
160.3099,61.9433
160.2144,61.7885
160.1624,61.7418
160.0935,61.7306
160.0294,61.7584
160.0212,61.7659
159.8820,61.9051
159.7100,62.0300
159.7100,62.0300
159.7100,62.0301
159.5206,62.1266
159.3184,62.1922
159.1085,62.2255
159.1085,62.2255
158.8959,62.2255
158.8959,62.2255
158.6860,62.1922
158.4838,62.1266
158.2944,62.0301
158.2724,62.0141
158.1224,61.9051
158.1224,61.9051
158.1224,61.9051
157.9721,61.7548
157.8525,61.5902
157.7972,61.5475
157.7276,61.5416
157.6658,61.5742
157.6519,61.5902
157.5442,61.7384
157.5323,61.7548
157.3820,61.9051
157.2100,62.0300
157.2100,62.0300
157.2100,62.0301
157.0206,62.1266
156.8184,62.1922
156.6085,62.2255
156.6085,62.2255
156.3959,62.2255
156.3959,62.2255
156.1860,62.1922
155.9838,62.1266
155.7944,62.0301
155.7724,62.0141
155.6224,61.9051
155.6224,61.9051
155.6224,61.9051
155.4721,61.7548
155.3525,61.5902
155.2972,61.5475
155.2276,61.5416
155.1658,61.5742
155.1519,61.5902
155.0442,61.7384
155.0323,61.7548
154.8820,61.9051
154.7100,62.0300
154.7100,62.0300
154.7100,62.0301
154.5206,62.1266
154.3184,62.1922
154.1085,62.2255
154.1085,62.2255
153.8959,62.2255
153.8959,62.2255
153.6860,62.1922
153.4838,62.1266
153.2944,62.0301
153.2724,62.0141
153.1224,61.9051
153.1224,61.9051
153.1224,61.9051
152.9721,61.7548
152.9721,61.7548
152.9721,61.7548
152.8472,61.5828
152.8472,61.5828
152.8471,61.5828
152.7506,61.3934
152.6850,61.1912
152.6517,60.9813
152.6517,60.5187
152.6850,60.3088
152.7506,60.1066
152.8471,59.9172
152.8472,59.9172
152.8472,59.9172
152.9721,59.7452
153.1224,59.5949
153.2944,59.4700
153.4838,59.3734
153.4838,59.3734
153.4838,59.3734
153.6860,59.3078
153.6860,59.3078
153.6860,59.3078
153.8472,59.2822
153.8959,59.2745
154.1085,59.2745
154.1572,59.2822
154.3184,59.3078
154.5206,59.3734
154.7100,59.4700
154.8820,59.5949
155.0323,59.7452
155.0323,59.7452
155.1519,59.9098
155.2072,59.9525
155.2768,59.9584
155.3386,59.9258
155.3525,59.9098
155.4721,59.7452
155.4721,59.7452
155.6224,59.5949
155.7944,59.4700
155.9838,59.3734
155.9838,59.3734
155.9838,59.3734
156.1860,59.3078
156.1860,59.3078
156.1860,59.3078
156.3472,59.2822
156.3959,59.2745
156.6085,59.2745
156.6572,59.2822
156.8184,59.3078
157.0206,59.3734
157.2100,59.4700
157.3820,59.5949
157.5323,59.7452
157.5323,59.7452
157.6519,59.9098
157.7072,59.9525
157.7768,59.9584
157.8386,59.9258
157.8525,59.9098
157.9721,59.7452
157.9721,59.7452
158.1224,59.5949
158.2944,59.4700
158.4838,59.3734
158.4838,59.3734
158.4838,59.3734
158.6860,59.3078
158.6860,59.3078
158.6860,59.3078
158.8472,59.2822
158.8959,59.2745
159.1085,59.2745
159.1572,59.2822
159.3184,59.3078
159.5206,59.3734
159.7100,59.4700
159.8820,59.5949
160.0212,59.7341
160.0825,59.7676
160.1522,59.7626
160.2081,59.7207
160.2144,59.7115
160.3099,59.5567
160.4339,59.4327
160.5831,59.3406
160.5831,59.3406
160.7495,59.2855
160.7495,59.2855
160.8522,59.2750
161.2522,59.2750
161.2522,60.3459
161.3189,60.3074
161.4397,60.2750
161.5647,60.2750
161.6855,60.3074
161.7522,60.3459
161.7522,59.2750
162.1522,59.2750
162.1522,59.2750
162.2549,59.2855
162.4213,59.3406
162.4213,59.3406
162.5705,59.4327
162.6945,59.5567
162.7866,59.7059
162.7866,59.7059
162.8417,59.8723
162.8417,59.8723
162.8522,59.9750
162.8522,60.5000
161.9063,60.5000
161.9448,60.5667
161.9772,60.6875
161.9772,60.8125
161.9448,60.9333
161.9063,61.0000
162.8522,61.0000
162.8522,61.5157
162.8719,61.5828
162.9247,61.6285
162.9938,61.6385
163.0574,61.6094
163.0639,61.6034
164.6755,59.9918
164.7090,59.9305
164.7103,59.9235
164.7337,59.7755
164.7337,59.7755
164.7970,59.5808
164.8535,59.4699
164.8899,59.3984
164.9319,59.3406
165.0102,59.2328
165.1550,59.0880
165.3206,58.9677
165.3206,58.9677
165.3206,58.9677
165.3775,58.9387
165.5030,58.8748
165.6977,58.8115
165.8722,58.7839
165.8998,58.7795
166.1046,58.7795
166.1289,58.7834
166.3067,58.8115
166.5014,58.8748
166.6838,58.9677
166.8494,59.0880
166.9942,59.2328
167.1145,59.3984
167.2074,59.5808
167.2707,59.7755
167.3027,59.9776
167.3027,60.1824
167.2707,60.3845
167.2074,60.5792
167.1145,60.7616
166.9942,60.9272
166.8494,61.0720
166.7187,61.1669
166.6838,61.1923
166.5676,61.2515
166.5014,61.2852
166.5014,61.2852
166.5014,61.2852
166.3971,61.3191
166.3067,61.3485
166.2292,61.3608
166.1587,61.3719
166.0956,61.4019
166.0904,61.4067
162.0390,65.4581
162.0055,65.5194
162.0027,65.5458
162.0027,75.0995
162.0027,75.0995
162.0027,75.0995
161.9643,75.2928
161.9642,75.2928
161.8888,75.4749
161.8888,75.4749
161.7793,75.6388
161.7793,75.6388
161.6357,75.7825
161.6356,75.7825
145.9837,91.4344
145.9502,91.4958
145.9489,91.5027
145.9407,91.5545
145.8774,91.7492
145.7845,91.9316
145.6642,92.0972
145.5194,92.2420
145.3645,92.3546
145.3538,92.3623
145.2376,92.4215
145.1714,92.4552
145.1714,92.4552
145.1714,92.4552
145.0917,92.4811
144.9767,92.5185
144.9483,92.5230
144.7746,92.5505
144.7746,92.5505
144.5698,92.5505
144.5698,92.5505
144.3961,92.5230
144.3268,92.5319
144.2734,92.5769
144.2527,92.6437
144.2527,92.6455
144.2527,104.6255
144.2724,104.6925
144.3252,104.7383
144.3767,104.7495
167.6562,104.7495
167.7232,104.7298
167.7690,104.6770
167.7789,104.6079
167.7741,104.5872
167.7342,104.4644
167.7022,104.2623
167.7022,104.0577
167.7342,103.8556
167.7974,103.6610
167.8903,103.4787
167.9227,103.4341
167.9227,103.4341
168.6022,104.1136
168.6022,104.1073
168.6295,104.0056
168.6821,103.9144
168.7566,103.8399
168.8478,103.7873
168.9495,103.7600
168.9558,103.7600
168.2763,103.0805
168.2763,103.0805
168.3208,103.0481
168.3208,103.0481
168.5032,102.9552
168.6978,102.8920
168.8999,102.8600
169.1045,102.8600
169.3066,102.8920
169.5012,102.9552
169.6836,103.0481
169.7281,103.0805
169.7281,103.0805
169.0486,103.7600
169.0549,103.7600
169.1566,103.7873
169.2478,103.8399
169.3223,103.9144
169.3749,104.0056
169.4022,104.1073
169.4022,104.1136
170.0817,103.4341
170.0817,103.4341
170.1141,103.4786
170.2070,103.6610
170.2702,103.8556
170.3022,104.0577
170.3022,104.2623
170.2702,104.4644
170.2303,104.5872
170.2283,104.6570
170.2644,104.7169
170.3271,104.7477
170.3482,104.7495
173.1277,104.7495
173.1947,104.7298
173.2405,104.6770
173.2517,104.6255
173.2517,98.9921
162.0027,98.9921
162.0027,102.0879
162.0027,102.0879
161.9963,102.1475
161.9460,102.2823
161.9460,102.2823
161.8597,102.3975
161.8597,102.3975
161.7445,102.4838
161.7445,102.4838
161.6097,102.5341
161.6097,102.5341
161.6028,102.5348
161.5501,102.5405
158.4543,102.5405
158.3947,102.5341
158.2599,102.4838
158.1447,102.3975
158.0584,102.2823
158.0081,102.1475
158.0017,102.0879
158.0017,98.9921
153.7527,98.9921
153.7527,102.0879
153.7527,102.0879
153.7463,102.1475
153.6960,102.2823
153.6960,102.2823
153.6097,102.3975
153.6097,102.3975
153.4945,102.4838
153.4945,102.4838
153.3597,102.5341
153.3597,102.5341
153.3528,102.5348
153.3001,102.5405
150.2043,102.5405
150.1447,102.5341
150.0099,102.4838
149.8947,102.3975
149.8084,102.2823
149.7581,102.1475
149.7517,102.0879
149.7517,98.9921
149.7581,98.9325
149.8084,98.7977
149.8084,98.7977
149.8084,98.7977
149.8947,98.6825
149.8947,98.6825
150.0099,98.5962
150.0099,98.5962
150.1447,98.5459
150.1447,98.5459
150.2043,98.5395
150.2043,98.5395
150.2043,98.5395
150.2043,98.5395
153.3001,98.5395
153.3001,98.5395
153.3597,98.5459
153.4945,98.5962
153.4945,98.5962
153.6097,98.6825
153.6097,98.6825
153.6960,98.7977
153.6960,98.7977
153.7463,98.9325
153.7527,98.9921
153.7527,98.9921
153.7527,98.9921
158.0017,98.9921
158.0017,98.9921
158.0081,98.9325
158.0584,98.7977
158.0584,98.7977
158.0584,98.7977
158.1447,98.6825
158.1447,98.6825
158.2599,98.5962
158.2599,98.5962
158.3947,98.5459
158.3947,98.5459
158.4543,98.5395
158.4543,98.5395
158.4543,98.5395
158.4543,98.5395
161.5501,98.5395
161.5501,98.5395
161.6097,98.5459
161.7445,98.5962
161.7445,98.5962
161.8597,98.6825
161.8597,98.6825
161.9460,98.7977
161.9460,98.7977
161.9963,98.9325
162.0027,98.9921
162.0027,98.9921
162.0027,98.9921
173.2517,98.9921
173.2517,95.3289
162.0027,95.3289
162.0027,95.5911
161.9761,95.7933
161.9685,95.8511
161.9006,96.1044
161.9006,96.1044
161.8002,96.3467
161.8002,96.3467
161.6691,96.5738
161.5095,96.7819
161.5095,96.7819
161.3241,96.9673
161.3241,96.9673
161.1160,97.1269
160.8889,97.2580
160.8889,97.2580
160.6466,97.3584
160.6466,97.3584
160.3933,97.4263
160.1333,97.4605
160.1333,97.4605
159.8711,97.4605
159.8711,97.4605
159.6111,97.4263
159.3578,97.3584
159.1155,97.2580
158.8884,97.1269
158.6803,96.9673
158.6803,96.9673
158.6803,96.9673
158.4949,96.7819
158.4949,96.7819
158.4949,96.7819
158.3353,96.5738
158.2042,96.3467
158.1038,96.1044
158.0359,95.8511
158.0017,95.5911
158.0017,95.3289
158.0017,95.3289
153.7527,95.3289
153.7527,95.5911
153.7261,95.7933
153.7185,95.8511
153.6506,96.1044
153.6506,96.1044
153.5502,96.3467
153.5502,96.3467
153.4191,96.5738
153.2595,96.7819
153.2595,96.7819
153.0741,96.9673
153.0741,96.9673
152.8660,97.1269
152.6389,97.2580
152.6389,97.2580
152.3966,97.3584
152.3966,97.3584
152.1433,97.4263
151.8833,97.4605
151.8833,97.4605
151.6211,97.4605
151.6211,97.4605
151.3611,97.4263
151.1078,97.3584
150.8655,97.2580
150.6384,97.1269
150.4303,96.9673
150.4303,96.9673
150.4303,96.9673
150.2449,96.7819
150.2449,96.7819
150.2449,96.7819
150.0853,96.5738
149.9542,96.3467
149.8538,96.1044
149.7859,95.8511
149.7517,95.5911
149.7517,95.3289
149.7859,95.0689
149.8538,94.8156
149.9093,94.6816
149.9542,94.5733
149.9542,94.5733
150.0853,94.3462
150.2449,94.1381
150.2449,94.1381
150.4303,93.9527
150.4303,93.9527
150.6384,93.7931
150.8655,93.6620
150.8655,93.6620
151.1078,93.5616
151.1078,93.5616
151.1078,93.5616
151.3611,93.4937
151.4189,93.4861
151.6211,93.4595
151.6211,93.4595
151.8833,93.4595
151.8833,93.4595
152.1144,93.4899
152.1433,93.4937
152.3966,93.5616
152.3966,93.5616
152.6389,93.6620
152.6389,93.6620
152.8660,93.7931
153.0741,93.9527
153.2595,94.1381
153.4191,94.3462
153.5502,94.5733
153.5502,94.5733
153.6506,94.8156
153.6506,94.8156
153.7185,95.0689
153.7527,95.3289
158.0017,95.3289
158.0359,95.0689
158.1038,94.8156
158.1593,94.6816
158.2042,94.5733
158.2042,94.5733
158.3353,94.3462
158.4949,94.1381
158.4949,94.1381
158.6803,93.9527
158.6803,93.9527
158.8884,93.7931
159.1155,93.6620
159.1155,93.6620
159.3578,93.5616
159.3578,93.5616
159.3578,93.5616
159.6111,93.4937
159.6689,93.4861
159.8711,93.4595
159.8711,93.4595
160.1333,93.4595
160.1333,93.4595
160.3644,93.4899
160.3933,93.4937
160.6466,93.5616
160.6466,93.5616
160.8889,93.6620
160.8889,93.6620
161.1160,93.7931
161.3241,93.9527
161.5095,94.1381
161.6691,94.3462
161.8002,94.5733
161.8002,94.5733
161.9006,94.8156
161.9006,94.8156
161.9685,95.0689
162.0027,95.3289
173.2517,95.3289
173.2517,93.8976
170.3027,93.8976
170.3027,94.1024
170.2707,94.3045
170.2074,94.4992
170.1145,94.6816
169.9942,94.8472
169.8494,94.9920
169.7435,95.0689
169.6838,95.1123
169.5676,95.1715
169.5014,95.2052
169.5014,95.2052
169.5014,95.2052
169.3971,95.2391
169.3067,95.2685
169.2056,95.2845
169.1046,95.3005
169.1046,95.3005
168.8998,95.3005
168.8998,95.3005
168.6977,95.2685
168.5030,95.2052
168.3206,95.1123
168.2276,95.0447
168.1550,94.9920
168.1550,94.9920
168.1550,94.9920
168.0102,94.8472
168.0102,94.8472
168.0102,94.8472
167.9575,94.7746
167.8899,94.6816
167.7970,94.4992
167.7337,94.3045
167.7017,94.1024
167.7017,93.8976
167.7337,93.6955
167.7970,93.5008
167.7970,93.5008
167.7970,93.5008
167.8307,93.4346
167.8899,93.3184
167.8976,93.3077
168.0102,93.1528
168.1550,93.0080
168.3206,92.8877
168.3206,92.8877
168.3206,92.8877
168.3775,92.8587
168.5030,92.7948
168.6977,92.7315
168.8722,92.7039
168.8998,92.6995
169.1046,92.6995
169.1289,92.7034
169.3067,92.7315
169.5014,92.7948
169.6838,92.8877
169.8494,93.0080
169.9942,93.1528
170.1145,93.3184
170.2074,93.5008
170.2707,93.6955
170.3027,93.8976
173.2517,93.8976
173.2517,90.3976
169.1327,90.3976
169.1327,90.6024
169.1007,90.8045
169.0374,90.9992
168.9930,91.0865
168.9618,91.1476
168.9445,91.1816
168.8242,91.3472
168.6794,91.4920
168.5245,91.6046
168.5138,91.6123
168.3976,91.6715
168.3314,91.7052
168.3314,91.7052
168.3314,91.7052
168.2271,91.7391
168.1367,91.7685
168.0356,91.7845
167.9346,91.8005
167.9346,91.8005
167.7298,91.8005
167.7298,91.8005
167.5277,91.7685
167.3330,91.7052
167.1506,91.6123
166.9998,91.5027
166.9850,91.4920
166.9850,91.4920
166.9850,91.4920
166.8402,91.3472
166.8402,91.3472
166.8402,91.3472
166.7875,91.2746
166.7199,91.1816
166.6270,90.9992
166.5637,90.8045
166.5317,90.6024
166.5317,90.3976
158.9727,90.3976
158.9727,90.6024
158.9407,90.8045
158.8774,90.9992
158.8330,91.0865
158.8018,91.1476
158.7845,91.1816
158.6642,91.3472
158.5194,91.4920
158.3645,91.6046
158.3538,91.6123
158.2376,91.6715
158.1714,91.7052
158.1714,91.7052
158.1714,91.7052
158.0671,91.7391
157.9767,91.7685
157.8756,91.7845
157.7746,91.8005
157.7746,91.8005
157.5698,91.8005
157.5698,91.8005
157.3677,91.7685
157.1730,91.7052
156.9906,91.6123
156.8398,91.5027
156.8250,91.4920
156.8250,91.4920
156.8250,91.4920
156.6802,91.3472
156.6802,91.3472
156.6802,91.3472
156.6275,91.2746
156.5599,91.1816
156.5426,91.1476
156.1327,91.1476
156.1327,91.3524
156.1007,91.5545
156.0374,91.7492
155.9445,91.9316
155.8242,92.0972
155.6794,92.2420
155.5245,92.3546
155.5138,92.3623
155.3976,92.4215
155.3314,92.4552
155.3314,92.4552
155.3314,92.4552
155.2517,92.4811
155.1367,92.5185
155.1083,92.5230
154.9346,92.5505
154.9346,92.5505
154.7298,92.5505
154.7298,92.5505
154.5277,92.5185
154.3330,92.4552
154.1506,92.3623
154.0576,92.2947
153.9850,92.2420
153.9850,92.2420
153.9850,92.2420
153.8402,92.0972
153.8402,92.0972
153.8402,92.0972
153.7875,92.0246
153.7199,91.9316
153.6270,91.7492
153.5637,91.5545
153.5317,91.3524
153.5317,91.1476
153.5414,91.0865
153.5637,90.9455
153.6270,90.7508
153.6607,90.6846
153.7199,90.5684
153.7276,90.5577
153.8402,90.4028
153.9850,90.2580
154.1506,90.1377
154.1506,90.1377
154.1506,90.1377
154.2075,90.1087
154.3330,90.0448
154.5277,89.9815
154.7022,89.9539
154.7298,89.9495
154.9346,89.9495
154.9589,89.9534
155.1367,89.9815
155.3314,90.0448
155.5138,90.1377
155.6794,90.2580
155.8242,90.4028
155.9445,90.5684
156.0374,90.7508
156.1007,90.9455
156.1327,91.1476
156.5426,91.1476
156.4670,90.9992
156.4037,90.8045
156.3717,90.6024
156.3717,90.3976
156.4037,90.1955
156.4670,90.0008
156.4670,90.0008
156.4670,90.0008
156.5031,89.9298
156.5599,89.8184
156.5676,89.8077
156.6802,89.6528
156.8250,89.5080
156.9906,89.3877
156.9906,89.3877
156.9906,89.3877
157.0475,89.3587
157.1730,89.2948
157.3677,89.2315
157.5422,89.2039
157.5698,89.1995
157.7746,89.1995
157.7989,89.2034
157.9767,89.2315
158.1714,89.2948
158.3538,89.3877
158.5194,89.5080
158.6642,89.6528
158.7845,89.8184
158.8774,90.0008
158.9407,90.1955
158.9727,90.3976
166.5317,90.3976
166.5637,90.1955
166.6270,90.0008
166.6270,90.0008
166.6270,90.0008
166.6631,89.9298
166.7199,89.8184
166.7276,89.8077
166.8402,89.6528
166.9850,89.5080
167.1506,89.3877
167.1506,89.3877
167.1506,89.3877
167.2075,89.3587
167.3330,89.2948
167.5277,89.2315
167.7022,89.2039
167.7298,89.1995
167.9346,89.1995
167.9589,89.2034
168.1367,89.2315
168.3314,89.2948
168.5138,89.3877
168.6794,89.5080
168.8242,89.6528
168.9445,89.8184
169.0374,90.0008
169.1007,90.1955
169.1327,90.3976
173.2517,90.3976
173.2517,74.8176
169.3027,74.8176
169.3027,75.0224
169.2707,75.2245
169.2074,75.4192
169.1754,75.4820
169.1277,75.5756
169.1145,75.6016
168.9942,75.7672
168.9390,75.8224
168.9055,75.8837
168.9027,75.9100
168.9027,82.0887
168.8681,82.2627
168.8681,82.2627
168.8367,82.3385
168.8367,82.3385
168.8342,82.3446
168.8002,82.4265
168.7411,82.5150
168.7380,82.5196
168.7380,82.5196
168.7017,82.5740
167.6901,83.5856
167.6566,83.6469
167.6616,83.7166
167.7035,83.7726
167.7689,83.7970
167.7972,83.7958
167.8998,83.7795
168.1046,83.7795
168.1289,83.7834
168.3067,83.8115
168.5014,83.8748
168.6838,83.9677
168.8494,84.0880
168.9942,84.2328
169.1145,84.3984
169.2074,84.5808
169.2707,84.7755
169.3027,84.9776
169.3027,85.1824
169.2707,85.3845
169.2074,85.5792
169.1145,85.7616
168.9942,85.9272
168.8494,86.0720
168.6945,86.1846
168.6838,86.1923
168.5676,86.2515
168.5014,86.2852
168.5014,86.2852
168.5014,86.2852
168.3971,86.3191
168.3067,86.3485
168.2056,86.3645
168.1046,86.3805
168.1046,86.3805
167.8998,86.3805
167.8998,86.3805
167.6977,86.3485
167.5030,86.2852
167.3206,86.1923
167.2276,86.1247
167.1550,86.0720
167.1550,86.0720
167.1550,86.0720
167.0102,85.9272
167.0102,85.9272
167.0102,85.9272
166.9575,85.8546
166.8899,85.7616
166.7970,85.5792
166.7337,85.3845
166.7017,85.1824
166.7017,84.9776
166.7180,84.8750
166.7090,84.8057
166.6640,84.7522
166.5973,84.7316
166.5299,84.7503
166.5078,84.7679
164.7265,86.5492
163.0402,88.2355
162.9147,88.3610
162.7672,88.4595
162.7192,88.4794
162.6034,88.5274
162.4294,88.5620
162.4294,88.5620
162.4294,88.5620
162.2520,88.5620
162.1537,88.5620
162.0867,88.5817
162.0661,88.5983
162.0109,88.6535
161.8559,88.7661
161.8453,88.7738
161.7291,88.8330
161.6629,88.8667
161.6629,88.8667
161.6629,88.8667
161.5586,88.9006
161.4682,88.9300
161.3671,88.9460
161.2661,88.9620
161.2660,88.9620
161.0613,88.9620
161.0613,88.9620
160.8592,88.9300
160.6645,88.8667
160.4821,88.7738
160.3891,88.7062
160.3165,88.6535
160.3165,88.6535
160.3165,88.6535
160.1717,88.5087
160.1717,88.5087
160.1717,88.5087
160.1190,88.4361
160.0514,88.3431
159.9585,88.1607
159.8952,87.9660
159.8632,87.7639
159.8632,87.5591
159.8952,87.3570
159.9585,87.1623
159.9585,87.1623
159.9585,87.1623
159.9922,87.0961
160.0514,86.9799
160.0591,86.9692
160.1717,86.8143
160.3165,86.6695
160.4821,86.5492
160.4821,86.5492
160.4821,86.5492
160.5390,86.5202
160.6645,86.4563
160.8592,86.3930
161.0337,86.3654
161.0613,86.3610
161.2661,86.3610
161.2904,86.3648
161.4682,86.3930
161.6629,86.4563
161.8453,86.5492
161.9532,86.6276
162.0190,86.6511
162.0870,86.6352
162.1138,86.6149
167.0654,81.6633
167.0989,81.6020
167.1017,81.5756
167.1017,75.9100
167.0945,75.8854
167.0911,75.8599
167.0839,75.8493
167.0820,75.8430
167.0724,75.8300
167.0690,75.8260
167.0102,75.7672
166.9549,75.6911
166.9520,75.6876
166.9265,75.6708
166.9023,75.6521
166.8976,75.6517
166.8936,75.6491
166.8631,75.6487
166.8327,75.6461
166.8285,75.6483
166.8238,75.6483
166.7979,75.6645
166.7709,75.6787
166.7682,75.6831
166.7645,75.6853
166.7577,75.6999
166.7393,75.7293
166.7070,75.8290
166.6141,76.0113
166.6141,76.0114
166.5817,76.0559
166.5817,76.0559
165.9022,75.3764
165.9022,75.3827
165.8749,75.4844
165.8223,75.5756
165.7478,75.6501
165.6566,75.7027
165.5549,75.7300
165.5486,75.7300
166.2281,76.4095
166.1835,76.4419
166.0012,76.5348
165.8066,76.5980
165.6045,76.6300
165.3999,76.6300
165.1978,76.5980
165.0032,76.5348
164.8209,76.4419
164.7763,76.4095
165.4558,75.7300
165.4495,75.7300
165.3478,75.7027
165.2566,75.6501
165.1821,75.5756
165.1295,75.4844
165.1022,75.3827
165.1022,75.3764
164.4227,76.0559
164.3903,76.0113
164.2974,75.8290
164.2342,75.6344
164.2022,75.4323
164.2022,75.2277
164.2342,75.0256
164.2974,74.8310
164.3903,74.6487
164.4227,74.6041
164.4227,74.6041
165.1022,75.2836
165.1022,75.2773
165.1295,75.1756
165.1821,75.0844
165.2566,75.0099
165.3478,74.9573
165.4495,74.9300
165.4558,74.9300
164.7763,74.2505
164.7763,74.2505
164.8208,74.2181
164.8208,74.2181
165.0032,74.1252
165.1978,74.0620
165.3999,74.0300
165.6045,74.0300
165.8066,74.0620
166.0012,74.1252
166.1836,74.2181
166.2281,74.2505
166.2281,74.2505
165.5486,74.9300
165.5549,74.9300
165.6566,74.9573
165.7478,75.0099
165.8223,75.0844
165.8749,75.1756
165.9022,75.2773
165.9022,75.2836
166.5817,74.6041
166.6361,74.6084
166.6610,74.6031
166.6865,74.6019
166.6946,74.5961
166.7045,74.5940
166.7226,74.5761
166.7434,74.5613
166.7497,74.5494
166.7542,74.5449
166.7610,74.5307
166.7625,74.5269
166.7970,74.4208
166.8899,74.2384
166.8899,74.2384
166.8899,74.2384
167.0102,74.0728
167.1550,73.9280
167.3206,73.8077
167.3206,73.8077
167.3206,73.8077
167.3775,73.7787
167.5030,73.7148
167.6977,73.6515
167.8722,73.6239
167.8998,73.6195
168.1046,73.6195
168.1289,73.6234
168.3067,73.6515
168.5014,73.7148
168.6838,73.8077
168.8494,73.9280
168.9942,74.0728
169.1145,74.2384
169.2074,74.4208
169.2707,74.6155
169.3027,74.8176
173.2517,74.8176
173.2517,58.0813
171.1527,58.0813
171.1527,61.5887
171.1181,61.7627
171.1181,61.7627
171.0867,61.8385
171.0867,61.8385
171.0842,61.8446
171.0502,61.9265
170.9911,62.0150
170.9880,62.0196
170.9880,62.0196
170.9517,62.0740
170.9517,62.0740
170.9517,62.0740
169.6137,63.4120
168.3800,64.6457
168.3465,64.7071
168.3515,64.7768
168.3933,64.8327
168.4293,64.8514
168.5014,64.8748
168.6838,64.9677
168.8494,65.0880
168.9942,65.2328
169.1145,65.3984
169.2074,65.5808
169.2707,65.7755
169.3027,65.9776
169.3027,66.1824
169.2707,66.3845
169.2074,66.5792
169.1145,66.7616
168.9942,66.9272
168.8494,67.0720
168.7243,67.1629
168.6838,67.1923
168.5014,67.2852
168.4384,67.3057
168.3807,67.3451
168.3535,67.4095
168.3527,67.4236
168.3527,68.8979
168.3527,68.8979
168.3463,68.9575
168.2960,69.0923
168.2960,69.0923
168.2097,69.2075
168.2097,69.2075
168.0945,69.2938
168.0945,69.2938
167.9597,69.3441
167.9597,69.3441
167.9528,69.3448
167.9001,69.3505
166.1043,69.3505
166.0447,69.3441
165.9099,69.2938
165.7947,69.2075
165.7084,69.0923
165.6581,68.9575
165.6517,68.8979
165.6517,68.8740
165.6489,68.8610
165.6383,68.8415
165.6320,68.8203
165.6154,68.7996
165.6154,68.7996
165.6154,68.7996
165.6154,68.7996
164.9452,68.1294
164.9281,68.1930
164.8623,68.3070
164.7692,68.4001
164.6552,68.4659
164.5916,68.4830
165.2239,69.1153
165.2239,69.1153
165.1698,69.1546
164.9804,69.2511
164.7783,69.3168
164.5684,69.3500
164.3560,69.3500
164.1461,69.3168
164.1461,69.3168
163.9440,69.2511
163.7546,69.1546
163.7005,69.1153
163.7005,69.1153
164.3328,68.4830
164.2692,68.4659
164.1552,68.4001
164.0621,68.3070
163.9963,68.1930
163.9792,68.1294
163.3469,68.7617
163.3469,68.7617
163.3076,68.7076
163.2111,68.5182
163.1454,68.3161
163.1454,68.3161
163.1122,68.1062
163.1122,67.8938
163.1454,67.6839
163.1454,67.6839
163.2111,67.4818
163.3076,67.2924
163.3469,67.2383
163.3469,67.2383
163.9792,67.8706
163.9963,67.8070
164.0621,67.6930
164.1552,67.5999
164.2692,67.5341
164.3328,67.5170
163.7005,66.8847
163.7546,66.8454
163.9440,66.7489
164.1461,66.6832
164.3560,66.6500
164.5684,66.6500
164.7783,66.6832
164.7783,66.6832
164.9804,66.7489
165.1698,66.8454
165.2239,66.8847
165.2239,66.8847
164.5916,67.5170
164.6552,67.5341
164.7692,67.5999
164.8623,67.6930
164.9281,67.8070
164.9452,67.8706
165.6154,67.2004
165.6489,67.1390
165.6489,67.1390
165.6517,67.1260
165.6517,67.1021
165.6581,67.0425
165.6995,66.9316
165.7084,66.9077
165.7084,66.9077
165.7947,66.7925
165.7947,66.7925
165.9099,66.7062
165.9099,66.7062
166.0447,66.6559
166.0447,66.6559
166.1043,66.6495
166.1043,66.6495
166.1043,66.6495
166.1043,66.6495
166.6491,66.6495
166.7162,66.6298
166.7619,66.5770
166.7719,66.5079
166.7671,66.4872
166.7337,66.3845
166.7337,66.3845
166.7337,66.3845
166.7017,66.1824
166.7017,66.1823
166.7009,66.1775
166.7009,66.1775
166.7010,66.1769
166.6881,66.1485
166.6770,66.1195
166.6737,66.1170
166.6720,66.1133
166.6458,66.0965
166.6208,66.0780
166.6157,66.0771
166.6132,66.0755
166.5783,66.0705
166.4922,66.0705
166.4252,66.0902
166.4046,66.1068
166.3494,66.1620
166.2313,66.2478
166.1838,66.2823
166.1021,66.3239
166.0014,66.3752
166.0014,66.3752
166.0014,66.3752
165.8971,66.4091
165.8067,66.4385
165.7056,66.4545
165.6046,66.4705
165.6046,66.4705
165.3998,66.4705
165.3998,66.4705
165.1977,66.4385
165.0030,66.3752
164.8206,66.2823
164.6830,66.1824
164.6550,66.1620
164.6550,66.1620
164.6550,66.1620
164.5102,66.0172
164.5102,66.0172
164.5102,66.0172
164.4575,65.9446
164.3899,65.8516
164.2970,65.6692
164.2337,65.4745
164.2017,65.2724
164.2017,65.0676
164.2337,64.8655
164.2970,64.6708
164.2970,64.6708
164.2970,64.6708
164.3307,64.6046
164.3899,64.4884
164.3976,64.4777
164.5102,64.3228
164.6550,64.1780
164.8206,64.0577
164.8206,64.0577
164.8206,64.0577
164.8775,64.0287
165.0030,63.9648
165.1977,63.9015
165.3722,63.8739
165.3998,63.8695
165.6046,63.8695
165.6289,63.8734
165.8067,63.9015
166.0014,63.9648
166.1838,64.0577
166.1838,64.0577
166.2355,64.0953
166.3013,64.1187
166.3694,64.1029
166.3961,64.0826
169.3154,61.1633
169.3489,61.1020
169.3517,61.0756
169.3517,58.5944
169.3320,58.5273
169.3154,58.5067
168.0655,57.2568
168.0042,57.2233
167.9778,57.2205
167.8998,57.2205
167.8998,57.2205
167.6977,57.1885
167.5030,57.1252
167.3206,57.0323
167.2276,56.9647
167.1550,56.9120
167.1550,56.9120
167.1550,56.9120
167.0102,56.7672
167.0102,56.7672
167.0102,56.7672
166.9575,56.6946
166.8899,56.6016
166.7970,56.4192
166.7337,56.2245
166.7017,56.0224
166.7017,55.8176
166.7033,55.8075
166.7337,55.6155
166.7775,55.4808
166.7970,55.4208
166.7970,55.4208
166.7970,55.4208
166.8504,55.3159
166.8899,55.2384
166.8976,55.2277
167.0102,55.0728
167.1550,54.9280
167.3206,54.8077
167.3206,54.8077
167.3206,54.8077
167.4181,54.7580
167.5030,54.7148
167.6977,54.6515
167.8722,54.6239
167.8998,54.6195
168.1046,54.6195
168.1289,54.6234
168.3067,54.6515
168.5014,54.7148
168.6838,54.8077
168.8494,54.9280
168.9942,55.0728
169.1145,55.2384
169.2074,55.4208
169.2707,55.6155
169.3027,55.8176
169.3027,55.8956
169.3224,55.9627
169.3390,55.9833
170.9517,57.5960
170.9517,57.5960
170.9911,57.6550
170.9911,57.6550
171.0502,57.7435
171.0842,57.8254
171.1181,57.9073
171.1181,57.9073
171.1527,58.0813
173.2517,58.0813
173.2517,55.8745
173.2320,55.8075
173.1792,55.7617
173.1277,55.7505
171.1863,55.7505
171.1863,55.7505
171.0590,55.7164
170.9449,55.6505
170.8517,55.5573
170.7858,55.4432
170.7517,55.3159
170.7517,53.6264
170.7320,53.5594
170.6792,53.5136
170.6101,53.5037
170.5465,53.5327
170.5098,53.5881
170.4574,53.7492
170.4151,53.8322
170.3645,53.9316
170.2442,54.0972
170.0994,54.2420
169.9952,54.3177
169.9338,54.3623
169.8405,54.4098
169.7514,54.4552
169.7514,54.4552
169.7514,54.4552
169.6471,54.4891
169.5567,54.5185
169.4556,54.5345
169.3546,54.5505
169.3546,54.5505
169.1498,54.5505
169.1498,54.5505
168.9477,54.5185
168.7530,54.4552
168.5706,54.3623
168.4574,54.2800
168.4050,54.2420
168.4050,54.2420
168.4050,54.2420
168.2602,54.0972
168.2602,54.0972
168.2602,54.0972
168.2014,54.0163
168.1399,53.9316
168.0470,53.7492
167.9837,53.5545
167.9517,53.3524
167.9517,53.1476
167.9731,53.0127
167.9837,52.9455
168.0470,52.7508
168.0926,52.6613
168.1399,52.5684
168.1476,52.5577
168.2602,52.4028
168.3154,52.3476
168.3489,52.2863
168.3517,52.2600
168.3517,51.0754
168.3431,51.0459
168.3365,51.0159
168.3328,51.0109
168.3320,51.0083
168.3154,50.9877
168.1922,50.8645
167.8553,50.5276
167.4808,50.1531
167.4195,50.1196
167.3498,50.1246
167.2939,50.1665
167.2714,50.2197
167.2713,50.2197
167.2712,50.2200
167.2707,50.2214
167.2702,50.2244
167.2070,50.4190
167.1141,50.6013
167.1141,50.6014
167.0817,50.6459
167.0817,50.6459
166.4022,49.9664
166.4022,49.9727
166.3749,50.0744
166.3223,50.1656
166.2478,50.2401
166.1566,50.2927
166.0549,50.3200
166.0486,50.3200
166.7281,50.9995
166.6835,51.0319
166.5012,51.1248
166.3066,51.1880
166.1045,51.2200
165.8999,51.2200
165.6978,51.1880
165.5032,51.1248
165.3209,51.0319
165.2763,50.9995
165.9558,50.3200
165.9495,50.3200
165.8478,50.2927
165.7566,50.2401
165.6821,50.1656
165.6295,50.0744
165.6022,49.9727
165.6022,49.9664
164.9227,50.6459
164.8903,50.6013
164.8872,50.5952
164.8392,50.5444
164.7714,50.5276
164.7053,50.5501
164.6618,50.6048
164.6527,50.6515
164.6527,52.8387
164.6181,53.0127
164.6181,53.0127
164.5867,53.0885
164.5867,53.0885
164.5842,53.0946
164.5502,53.1765
164.4911,53.2650
164.4880,53.2696
164.4880,53.2696
164.4517,53.3240
164.4517,53.3240
164.4517,53.3240
160.8007,56.9750
160.7252,57.0505
160.6752,57.1005
160.6208,57.1368
160.5277,57.1990
160.4797,57.2189
160.3639,57.2669
160.1899,57.3015
160.1899,57.3015
160.1899,57.3015
151.8145,57.3015
151.8145,57.3015
151.6405,57.2669
151.5586,57.2330
151.4767,57.1990
151.3882,57.1399
151.3292,57.1005
151.3155,57.0868
151.2542,57.0533
151.2278,57.0505
151.1498,57.0505
151.1498,57.0505
150.9477,57.0185
150.7530,56.9552
150.5706,56.8623
150.4397,56.7672
150.4050,56.7420
150.4050,56.7420
150.4050,56.7420
150.2602,56.5972
150.2602,56.5972
150.2602,56.5972
150.2075,56.5246
150.1399,56.4316
150.0470,56.2492
149.9837,56.0545
149.9517,55.8524
149.9517,55.6476
149.9837,55.4455
149.9917,55.4208
150.0258,55.3159
150.0470,55.2508
150.0470,55.2508
150.0470,55.2508
150.0810,55.1841
150.1399,55.0684
150.1483,55.0568
150.2602,54.9028
150.4050,54.7580
150.5706,54.6377
150.5706,54.6377
150.5706,54.6377
150.6275,54.6087
150.7530,54.5448
150.9477,54.4815
151.1222,54.4539
151.1498,54.4495
151.3546,54.4495
151.3789,54.4534
151.5567,54.4815
151.7514,54.5448
151.9338,54.6377
152.0994,54.7580
152.2442,54.9028
152.3645,55.0684
152.4574,55.2508
152.5107,55.4148
152.5502,55.4725
152.6145,55.4997
152.6286,55.5005
159.6768,55.5005
159.7439,55.4808
159.7645,55.4642
160.5415,54.6872
160.5750,54.6259
160.5700,54.5562
160.5281,54.5002
160.4627,54.4758
160.4538,54.4755
159.6022,54.4755
159.6022,54.4755
159.4994,54.4650
159.3329,54.4098
159.1835,54.3177
159.0595,54.1937
158.9674,54.0443
158.9674,54.0443
158.9640,54.0389
158.9121,53.9922
158.8431,53.9809
158.7790,54.0088
158.7708,54.0163
158.6320,54.1551
158.4600,54.2800
158.4600,54.2800
158.4600,54.2801
158.2706,54.3766
158.0684,54.4422
157.8585,54.4755
157.8585,54.4755
157.6459,54.4755
157.6459,54.4755
157.4360,54.4422
157.2338,54.3766
157.0444,54.2801
156.9920,54.2420
156.8724,54.1551
156.8724,54.1551
156.8724,54.1551
156.7221,54.0048
156.6025,53.8402
156.5472,53.7975
156.4776,53.7916
156.4158,53.8242
156.4019,53.8402
156.3355,53.9316
156.2823,54.0048
156.1320,54.1551
155.9600,54.2800
155.9600,54.2800
155.9600,54.2801
155.7706,54.3766
155.5684,54.4422
155.3585,54.4755
155.3585,54.4755
155.1459,54.4755
155.1459,54.4755
154.9360,54.4422
154.7338,54.3766
154.5444,54.2801
154.4920,54.2420
154.3724,54.1551
154.3724,54.1551
154.3724,54.1551
154.2221,54.0048
154.2221,54.0048
154.2221,54.0048
154.0972,53.8328
154.0972,53.8328
154.0971,53.8328
154.0006,53.6434
153.9350,53.4412
153.9017,53.2313
153.9017,52.7687
153.9350,52.5588
154.0006,52.3566
154.0971,52.1672
154.0972,52.1672
154.0972,52.1672
154.2221,51.9952
154.3724,51.8449
154.5444,51.7200
154.7338,51.6234
154.7338,51.6234
154.7338,51.6234
154.9360,51.5578
154.9360,51.5578
154.9360,51.5578
155.0972,51.5322
155.1459,51.5245
155.3585,51.5245
155.4072,51.5322
155.5684,51.5578
155.7706,51.6234
155.9600,51.7200
156.1320,51.8449
156.2823,51.9952
156.2823,51.9952
156.4019,52.1598
156.4572,52.2025
156.5268,52.2084
156.5886,52.1758
156.6025,52.1598
156.7221,51.9952
156.7221,51.9952
156.8724,51.8449
157.0444,51.7200
157.2338,51.6234
157.2338,51.6234
157.2338,51.6234
157.4360,51.5578
157.4360,51.5578
157.4360,51.5578
157.5972,51.5322
157.6459,51.5245
157.8585,51.5245
157.9072,51.5322
158.0684,51.5578
158.2706,51.6234
158.4600,51.7200
158.6320,51.8449
158.7708,51.9837
158.8321,52.0172
158.9018,52.0122
158.9578,51.9703
158.9640,51.9611
159.0595,51.8063
159.1835,51.6823
159.1835,51.6823
159.3329,51.5902
159.4994,51.5350
159.4994,51.5350
159.6022,51.5245
160.9022,51.5245
160.9022,51.5245
161.0050,51.5350
161.0050,51.5350
161.1715,51.5902
161.1715,51.5902
161.3209,51.6823
161.4449,51.8063
161.5370,51.9557
161.5370,51.9557
161.5419,51.9703
161.5922,52.1222
161.5922,52.1222
161.5922,52.1222
161.6027,52.2250
161.6027,53.3266
161.6224,53.3937
161.6752,53.4394
161.7443,53.4494
161.8079,53.4204
161.8144,53.4143
162.8154,52.4133
162.8489,52.3520
162.8517,52.3256
162.8517,49.4113
162.8517,49.4113
162.8544,49.3976
160.6327,49.3976
160.6327,49.6024
160.6007,49.8045
160.5374,49.9992
160.4978,50.0770
160.4446,50.1814
160.4445,50.1816
160.3242,50.3472
160.1794,50.4920
160.0590,50.5795
160.0138,50.6123
159.9369,50.6515
159.8314,50.7052
159.8314,50.7052
159.8314,50.7052
159.7271,50.7391
159.6367,50.7685
159.5356,50.7845
159.4346,50.8005
159.4346,50.8005
159.2298,50.8005
159.2298,50.8005
159.0277,50.7685
158.8330,50.7052
158.6506,50.6123
158.5340,50.5276
158.4850,50.4920
158.4850,50.4920
158.4850,50.4920
158.3402,50.3472
158.3402,50.3472
158.3402,50.3472
158.2624,50.2401
158.2199,50.1816
158.1270,49.9992
158.0637,49.8045
158.0317,49.6024
158.0317,49.3977
150.4722,49.3977
150.4722,49.6023
150.4402,49.8044
150.3770,49.9990
150.2841,50.1813
150.2841,50.1814
150.2517,50.2259
150.2517,50.2259
149.5722,49.5464
149.5722,49.5527
149.5449,49.6544
149.4923,49.7456
149.4178,49.8201
149.3266,49.8727
149.2249,49.9000
149.2186,49.9000
149.8981,50.5795
149.8535,50.6119
149.6712,50.7048
149.4766,50.7680
149.2745,50.8000
149.0699,50.8000
148.8678,50.7680
148.6732,50.7048
148.4909,50.6119
148.4463,50.5795
149.1258,49.9000
149.1195,49.9000
149.0178,49.8727
148.9266,49.8201
148.8521,49.7456
148.7995,49.6544
148.7722,49.5527
148.7722,49.5464
148.0927,50.2259
148.0927,50.2259
148.0603,50.1813
147.9674,49.9990
147.9042,49.8044
147.8722,49.6023
147.8722,49.3977
147.9042,49.1956
147.9674,49.0010
148.0603,48.8186
148.0927,48.7741
148.0927,48.7741
148.7722,49.4536
148.7722,49.4473
148.7995,49.3456
148.8521,49.2544
148.9266,49.1799
149.0178,49.1273
149.1195,49.1000
149.1258,49.1000
148.4463,48.4205
148.4463,48.4205
148.4908,48.3881
148.4908,48.3881
148.6732,48.2952
148.8678,48.2320
149.0699,48.2000
149.2745,48.2000
149.4766,48.2320
149.6712,48.2952
149.8536,48.3881
149.8981,48.4205
149.8981,48.4205
149.2186,49.1000
149.2249,49.1000
149.3266,49.1273
149.4178,49.1799
149.4923,49.2544
149.5449,49.3456
149.5722,49.4473
149.5722,49.4536
150.2517,48.7741
150.2517,48.7741
150.2841,48.8186
150.3770,49.0010
150.4402,49.1956
150.4722,49.3977
158.0317,49.3977
158.0317,49.3976
158.0544,49.2544
158.0637,49.1955
158.0947,49.1000
158.1270,49.0008
158.1270,49.0008
158.1270,49.0008
158.2198,48.8186
158.2199,48.8184
158.2521,48.7741
158.3402,48.6528
158.4850,48.5080
158.6506,48.3877
158.6506,48.3877
158.6506,48.3877
158.7075,48.3587
158.8330,48.2948
159.0277,48.2315
159.2022,48.2039
159.2298,48.1995
159.4346,48.1995
159.4589,48.2034
159.6367,48.2315
159.8314,48.2948
160.0138,48.3877
160.1794,48.5080
160.3242,48.6528
160.4445,48.8184
160.5374,49.0008
160.6007,49.1955
160.6327,49.3976
162.8544,49.3976
162.8544,49.3976
162.8863,49.2373
162.8863,49.2373
162.9101,49.1799
162.9177,49.1615
162.9177,49.1615
162.9202,49.1554
162.9542,49.0735
163.0133,48.9850
163.0298,48.9603
163.0527,48.9260
164.0165,47.9622
164.0500,47.9009
164.0450,47.8312
164.0031,47.7752
163.9377,47.7508
163.9288,47.7505
146.8767,47.7505
Z" /> 
</g> 
</svg>
