<?xml version="1.0" standalone="no"?>
 <!DOCTYPE svg PUBLIC "-//W3C//DTD SVG 1.1//EN" 
 "http://www.w3.org/Graphics/SVG/1.1/DTD/svg11.dtd"> 
<svg
  xmlns:svg="http://www.w3.org/2000/svg"
  xmlns="http://www.w3.org/2000/svg"
  xmlns:xlink="http://www.w3.org/1999/xlink"
  version="1.1"
  width="297.0022mm" height="210.0072mm" viewBox="0.0000 0.0000 297.0022 210.0072">
<title>SVG Image created as pcb-power-2-B_Cu.svg date 2026/03/03 19:53:31 </title>
  <desc>Image generated by PCBNEW </desc>
<g style="fill:#000000; fill-opacity:1.0000;stroke:#000000; stroke-opacity:1.0000;
stroke-linecap:round; stroke-linejoin:round;"
 transform="translate(0 0) scale(1 1)">
</g>
<g style="fill:#000000; fill-opacity:1.0000; stroke:none;">
<circle cx="139.3300" cy="90.5000" r="0.8000" /> 
</g>
<g style="fill:#000000; fill-opacity:1.0000; stroke:none;">
<circle cx="129.1700" cy="90.5000" r="0.8000" /> 
<path style="fill:#000000; fill-opacity:1.0000; stroke:none;fill-rule:evenodd;"
d="M 134.6500,60.0250
134.6690,59.9293
134.7232,59.8482
134.8043,59.7940
134.9000,59.7750
136.1000,59.7750
136.1957,59.7940
136.2768,59.8482
136.3310,59.9293
136.3500,60.0250
136.3500,61.4750
136.3310,61.5707
136.2768,61.6518
136.1957,61.7060
136.1000,61.7250
134.9000,61.7250
134.8043,61.7060
134.7232,61.6518
134.6690,61.5707
134.6500,61.4750
Z" /> 
</g>
<g style="fill:none; 
stroke:#000000; stroke-width:1.7000; stroke-opacity:1; 
stroke-linecap:round; stroke-linejoin:round;">
<path d="M138.0000 60.6250
L138.0000 60.8750
" />
<path d="M140.5000 60.6250
L140.5000 60.8750
" />
<path d="M143.0000 60.6250
L143.0000 60.8750
" />
</g>
<g style="fill:#000000; fill-opacity:1.0000; stroke:none;">
<circle cx="128.0000" cy="104.1600" r="0.8000" /> 
</g>
<g style="fill:#000000; fill-opacity:1.0000; stroke:none;">
<circle cx="128.0000" cy="94.0000" r="0.8000" /> 
<path style="fill:#000000; fill-opacity:1.0000; stroke:none;fill-rule:evenodd;"
d="M 135.9000,52.2750
135.9190,52.1793
135.9732,52.0982
136.0543,52.0440
136.1500,52.0250
137.3500,52.0250
137.4457,52.0440
137.5268,52.0982
137.5810,52.1793
137.6000,52.2750
137.6000,53.7250
137.5810,53.8207
137.5268,53.9018
137.4457,53.9560
137.3500,53.9750
136.1500,53.9750
136.0543,53.9560
135.9732,53.9018
135.9190,53.8207
135.9000,53.7250
Z" /> 
</g>
<g style="fill:none; 
stroke:#000000; stroke-width:1.7000; stroke-opacity:1; 
stroke-linecap:round; stroke-linejoin:round;">
<path d="M139.2500 52.8750
L139.2500 53.1250
" />
<path d="M141.7500 52.8750
L141.7500 53.1250
" />
<path style="fill:#000000; fill-opacity:1.0000; stroke:none;fill-rule:evenodd;"
d="M 146.7500,102.0400
143.7500,102.0400
143.7500,99.0400
146.7500,99.0400
Z" /> 
</g>
<g style="fill:#000000; fill-opacity:1.0000; stroke:none;">
<circle cx="145.2500" cy="95.4600" r="1.5000" /> 
<path style="fill:#000000; fill-opacity:1.0000; stroke:none;fill-rule:evenodd;"
d="M 147.2000,69.0500
147.1043,69.0310
147.0232,68.9768
146.9690,68.8957
146.9500,68.8000
146.9500,67.7000
146.9690,67.6043
147.0232,67.5232
147.1043,67.4690
147.2000,67.4500
148.3000,67.4500
148.3957,67.4690
148.4768,67.5232
148.5310,67.6043
148.5500,67.7000
148.5500,68.8000
148.5310,68.8957
148.4768,68.9768
148.3957,69.0310
148.3000,69.0500
Z" /> 
</g>
<g style="fill:#000000; fill-opacity:1.0000; stroke:none;">
<circle cx="147.7500" cy="66.2500" r="0.8000" /> 
</g>
<g style="fill:#000000; fill-opacity:1.0000; stroke:none;">
<circle cx="142.1700" cy="91.2500" r="0.8000" /> 
</g>
<g style="fill:#000000; fill-opacity:1.0000; stroke:none;">
<circle cx="152.3300" cy="91.2500" r="0.8000" /> 
<path style="fill:#000000; fill-opacity:1.0000; stroke:none;fill-rule:evenodd;"
d="M 137.1500,66.9750
137.1690,66.8793
137.2232,66.7982
137.3043,66.7440
137.4000,66.7250
138.6000,66.7250
138.6957,66.7440
138.7768,66.7982
138.8310,66.8793
138.8500,66.9750
138.8500,68.4750
138.8310,68.5707
138.7768,68.6518
138.6957,68.7060
138.6000,68.7250
137.4000,68.7250
137.3043,68.7060
137.2232,68.6518
137.1690,68.5707
137.1500,68.4750
Z" /> 
</g>
<g style="fill:none; 
stroke:#000000; stroke-width:1.7000; stroke-opacity:1; 
stroke-linecap:round; stroke-linejoin:round;">
<path d="M140.5000 67.5750
L140.5000 67.8750
" />
</g>
<g style="fill:#000000; fill-opacity:1.0000; stroke:none;">
<circle cx="131.0000" cy="60.0800" r="0.8000" /> 
</g>
<g style="fill:#000000; fill-opacity:1.0000; stroke:none;">
<circle cx="131.0000" cy="49.9200" r="0.8000" /> 
</g>
<g style="fill:#000000; fill-opacity:1.0000; stroke:none;">
<circle cx="152.2500" cy="62.4200" r="0.8000" /> 
</g>
<g style="fill:#000000; fill-opacity:1.0000; stroke:none;">
<circle cx="152.2500" cy="72.5800" r="0.8000" /> 
</g>
<g style="fill:#000000; fill-opacity:1.0000; stroke:none;">
<circle cx="151.9100" cy="76.7500" r="0.8000" /> 
</g>
<g style="fill:#000000; fill-opacity:1.0000; stroke:none;">
<circle cx="141.7500" cy="76.7500" r="0.8000" /> 
<path style="fill:#000000; fill-opacity:1.0000; stroke:none;fill-rule:evenodd;"
d="M 138.5000,102.0400
135.5000,102.0400
135.5000,99.0400
138.5000,99.0400
Z" /> 
</g>
<g style="fill:#000000; fill-opacity:1.0000; stroke:none;">
<circle cx="137.0000" cy="95.4600" r="1.5000" /> 
</g>
<g style="fill:#000000; fill-opacity:1.0000; stroke:none;">
<circle cx="131.5000" cy="65.1700" r="0.8000" /> 
</g>
<g style="fill:#000000; fill-opacity:1.0000; stroke:none;">
<circle cx="131.5000" cy="75.3300" r="0.8000" /> 
</g>
<g style="fill:#000000; fill-opacity:1.0000; stroke:none;">
<circle cx="129.0000" cy="85.0800" r="0.8000" /> 
</g>
<g style="fill:#000000; fill-opacity:1.0000; stroke:none;">
<circle cx="129.0000" cy="74.9200" r="0.8000" /> 
<path style="fill:#000000; fill-opacity:1.0000; stroke:none;fill-rule:evenodd;"
d="M 125.9330,101.2650
125.8917,101.2568
125.8566,101.2334
125.8332,101.1983
125.8250,101.1570
125.8250,100.6530
125.8332,100.6117
125.8566,100.5766
125.8917,100.5532
125.9330,100.5450
127.4970,100.5450
127.5383,100.5532
127.5734,100.5766
127.5968,100.6117
127.6050,100.6530
127.6050,101.1570
127.5968,101.1983
127.5734,101.2334
127.5383,101.2568
127.4970,101.2650
Z" /> 
<path style="fill:#000000; fill-opacity:1.0000; stroke:none;fill-rule:evenodd;"
d="M 125.9330,99.9950
125.8917,99.9868
125.8566,99.9634
125.8332,99.9283
125.8250,99.8870
125.8250,99.3830
125.8332,99.3417
125.8566,99.3066
125.8917,99.2832
125.9330,99.2750
127.4970,99.2750
127.5383,99.2832
127.5734,99.3066
127.5968,99.3417
127.6050,99.3830
127.6050,99.8870
127.5968,99.9283
127.5734,99.9634
127.5383,99.9868
127.4970,99.9950
Z" /> 
<path style="fill:#000000; fill-opacity:1.0000; stroke:none;fill-rule:evenodd;"
d="M 125.9330,98.7250
125.8917,98.7168
125.8566,98.6934
125.8332,98.6583
125.8250,98.6170
125.8250,98.1130
125.8332,98.0717
125.8566,98.0366
125.8917,98.0132
125.9330,98.0050
127.4970,98.0050
127.5383,98.0132
127.5734,98.0366
127.5968,98.0717
127.6050,98.1130
127.6050,98.6170
127.5968,98.6583
127.5734,98.6934
127.5383,98.7168
127.4970,98.7250
Z" /> 
<path style="fill:#000000; fill-opacity:1.0000; stroke:none;fill-rule:evenodd;"
d="M 125.9330,97.4550
125.8917,97.4468
125.8566,97.4234
125.8332,97.3883
125.8250,97.3470
125.8250,96.8430
125.8332,96.8017
125.8566,96.7666
125.8917,96.7432
125.9330,96.7350
127.4970,96.7350
127.5383,96.7432
127.5734,96.7666
127.5968,96.8017
127.6050,96.8430
127.6050,97.3470
127.5968,97.3883
127.5734,97.4234
127.5383,97.4468
127.4970,97.4550
Z" /> 
<path style="fill:#000000; fill-opacity:1.0000; stroke:none;fill-rule:evenodd;"
d="M 131.5030,98.7250
131.4617,98.7168
131.4266,98.6934
131.4032,98.6583
131.3950,98.6170
131.3950,98.1130
131.4032,98.0717
131.4266,98.0366
131.4617,98.0132
131.5030,98.0050
133.0670,98.0050
133.1083,98.0132
133.1434,98.0366
133.1668,98.0717
133.1750,98.1130
133.1750,98.6170
133.1668,98.6583
133.1434,98.6934
133.1083,98.7168
133.0670,98.7250
Z" /> 
<path style="fill:#000000; fill-opacity:1.0000; stroke:none;fill-rule:evenodd;"
d="M 131.5030,97.4550
131.4617,97.4468
131.4266,97.4234
131.4032,97.3883
131.3950,97.3470
131.3950,96.8430
131.4032,96.8017
131.4266,96.7666
131.4617,96.7432
131.5030,96.7350
133.0670,96.7350
133.1083,96.7432
133.1434,96.7666
133.1668,96.8017
133.1750,96.8430
133.1750,97.3470
133.1668,97.3883
133.1434,97.4234
133.1083,97.4468
133.0670,97.4550
Z" /> 
<path style="fill:#000000; fill-opacity:1.0000; stroke:none;fill-rule:evenodd;"
d="M 131.5030,101.2650
131.4617,101.2568
131.4266,101.2334
131.4032,101.1983
131.3950,101.1570
131.3950,100.6530
131.4032,100.6117
131.4266,100.5766
131.4617,100.5532
131.5030,100.5450
133.0670,100.5450
133.1083,100.5532
133.1434,100.5766
133.1668,100.6117
133.1750,100.6530
133.1750,101.1570
133.1668,101.1983
133.1434,101.2334
133.1083,101.2568
133.0670,101.2650
Z" /> 
<path style="fill:#000000; fill-opacity:1.0000; stroke:none;fill-rule:evenodd;"
d="M 131.5030,99.9950
131.4617,99.9868
131.4266,99.9634
131.4032,99.9283
131.3950,99.8870
131.3950,99.3830
131.4032,99.3417
131.4266,99.3066
131.4617,99.2832
131.5030,99.2750
133.0670,99.2750
133.1083,99.2832
133.1434,99.3066
133.1668,99.3417
133.1750,99.3830
133.1750,99.8870
133.1668,99.9283
133.1434,99.9634
133.1083,99.9868
133.0670,99.9950
Z" /> 
<path style="fill:#000000; fill-opacity:1.0000; stroke:none;fill-rule:evenodd;"
d="M 133.7000,83.8500
133.7114,83.7926
133.7439,83.7439
133.7926,83.7114
133.8500,83.7000
135.0250,83.7000
135.0824,83.7114
135.1311,83.7439
135.1636,83.7926
135.1750,83.8500
135.1750,84.1500
135.1636,84.2074
135.1311,84.2561
135.0824,84.2886
135.0250,84.3000
133.8500,84.3000
133.7926,84.2886
133.7439,84.2561
133.7114,84.2074
133.7000,84.1500
Z" /> 
<path style="fill:#000000; fill-opacity:1.0000; stroke:none;fill-rule:evenodd;"
d="M 131.8250,84.8000
131.8364,84.7426
131.8689,84.6939
131.9176,84.6614
131.9750,84.6500
133.1500,84.6500
133.2074,84.6614
133.2561,84.6939
133.2886,84.7426
133.3000,84.8000
133.3000,85.1000
133.2886,85.1574
133.2561,85.2061
133.2074,85.2386
133.1500,85.2500
131.9750,85.2500
131.9176,85.2386
131.8689,85.2061
131.8364,85.1574
131.8250,85.1000
Z" /> 
<path style="fill:#000000; fill-opacity:1.0000; stroke:none;fill-rule:evenodd;"
d="M 131.8250,82.9000
131.8364,82.8426
131.8689,82.7939
131.9176,82.7614
131.9750,82.7500
133.1500,82.7500
133.2074,82.7614
133.2561,82.7939
133.2886,82.8426
133.3000,82.9000
133.3000,83.2000
133.2886,83.2574
133.2561,83.3061
133.2074,83.3386
133.1500,83.3500
131.9750,83.3500
131.9176,83.3386
131.8689,83.3061
131.8364,83.2574
131.8250,83.2000
Z" /> 
</g>
<g style="fill:#000000; fill-opacity:1.0000; stroke:none;">
<circle cx="137.6700" cy="49.5000" r="0.8000" /> 
</g>
<g style="fill:#000000; fill-opacity:1.0000; stroke:none;">
<circle cx="147.8300" cy="49.5000" r="0.8000" /> 
<path style="fill:#000000; fill-opacity:1.0000; stroke:none;fill-rule:evenodd;"
d="M 149.9300,91.9000
149.8343,91.8810
149.7532,91.8268
149.6990,91.7457
149.6800,91.6500
149.6800,89.9500
149.6990,89.8543
149.7532,89.7732
149.8343,89.7190
149.9300,89.7000
150.6300,89.7000
150.7257,89.7190
150.8068,89.7732
150.8610,89.8543
150.8800,89.9500
150.8800,91.6500
150.8610,91.7457
150.8068,91.8268
150.7257,91.8810
150.6300,91.9000
Z" /> 
<path style="fill:#000000; fill-opacity:1.0000; stroke:none;fill-rule:evenodd;"
d="M 145.3500,87.7000
145.2543,87.6810
145.1732,87.6268
145.1190,87.5457
145.1000,87.4500
145.1000,81.5500
145.1190,81.4543
145.1732,81.3732
145.2543,81.3190
145.3500,81.3000
150.6500,81.3000
150.7457,81.3190
150.8268,81.3732
150.8810,81.4543
150.9000,81.5500
150.9000,87.4500
150.8810,87.5457
150.8268,87.6268
150.7457,87.6810
150.6500,87.7000
Z" /> 
<path style="fill:#000000; fill-opacity:1.0000; stroke:none;fill-rule:evenodd;"
d="M 145.3700,91.9000
145.2743,91.8810
145.1932,91.8268
145.1390,91.7457
145.1200,91.6500
145.1200,89.9500
145.1390,89.8543
145.1932,89.7732
145.2743,89.7190
145.3700,89.7000
146.0700,89.7000
146.1657,89.7190
146.2468,89.7732
146.3010,89.8543
146.3200,89.9500
146.3200,91.6500
146.3010,91.7457
146.2468,91.8268
146.1657,91.8810
146.0700,91.9000
Z" /> 
<path style="fill:#000000; fill-opacity:1.0000; stroke:none;fill-rule:evenodd;"
d="M 136.8980,86.8600
136.8567,86.8518
136.8216,86.8284
136.7982,86.7933
136.7900,86.7520
136.7900,86.2480
136.7982,86.2067
136.8216,86.1716
136.8567,86.1482
136.8980,86.1400
138.4620,86.1400
138.5033,86.1482
138.5384,86.1716
138.5618,86.2067
138.5700,86.2480
138.5700,86.7520
138.5618,86.7933
138.5384,86.8284
138.5033,86.8518
138.4620,86.8600
Z" /> 
<path style="fill:#000000; fill-opacity:1.0000; stroke:none;fill-rule:evenodd;"
d="M 136.8980,85.5900
136.8567,85.5818
136.8216,85.5584
136.7982,85.5233
136.7900,85.4820
136.7900,84.9780
136.7982,84.9367
136.8216,84.9016
136.8567,84.8782
136.8980,84.8700
138.4620,84.8700
138.5033,84.8782
138.5384,84.9016
138.5618,84.9367
138.5700,84.9780
138.5700,85.4820
138.5618,85.5233
138.5384,85.5584
138.5033,85.5818
138.4620,85.5900
Z" /> 
<path style="fill:#000000; fill-opacity:1.0000; stroke:none;fill-rule:evenodd;"
d="M 136.8980,84.3200
136.8567,84.3118
136.8216,84.2884
136.7982,84.2533
136.7900,84.2120
136.7900,83.7080
136.7982,83.6667
136.8216,83.6316
136.8567,83.6082
136.8980,83.6000
138.4620,83.6000
138.5033,83.6082
138.5384,83.6316
138.5618,83.6667
138.5700,83.7080
138.5700,84.2120
138.5618,84.2533
138.5384,84.2884
138.5033,84.3118
138.4620,84.3200
Z" /> 
<path style="fill:#000000; fill-opacity:1.0000; stroke:none;fill-rule:evenodd;"
d="M 136.8980,83.0500
136.8567,83.0418
136.8216,83.0184
136.7982,82.9833
136.7900,82.9420
136.7900,82.4380
136.7982,82.3967
136.8216,82.3616
136.8567,82.3382
136.8980,82.3300
138.4620,82.3300
138.5033,82.3382
138.5384,82.3616
138.5618,82.3967
138.5700,82.4380
138.5700,82.9420
138.5618,82.9833
138.5384,83.0184
138.5033,83.0418
138.4620,83.0500
Z" /> 
<path style="fill:#000000; fill-opacity:1.0000; stroke:none;fill-rule:evenodd;"
d="M 142.4680,84.3200
142.4267,84.3118
142.3916,84.2884
142.3682,84.2533
142.3600,84.2120
142.3600,83.7080
142.3682,83.6667
142.3916,83.6316
142.4267,83.6082
142.4680,83.6000
144.0320,83.6000
144.0733,83.6082
144.1084,83.6316
144.1318,83.6667
144.1400,83.7080
144.1400,84.2120
144.1318,84.2533
144.1084,84.2884
144.0733,84.3118
144.0320,84.3200
Z" /> 
<path style="fill:#000000; fill-opacity:1.0000; stroke:none;fill-rule:evenodd;"
d="M 142.4680,83.0500
142.4267,83.0418
142.3916,83.0184
142.3682,82.9833
142.3600,82.9420
142.3600,82.4380
142.3682,82.3967
142.3916,82.3616
142.4267,82.3382
142.4680,82.3300
144.0320,82.3300
144.0733,82.3382
144.1084,82.3616
144.1318,82.3967
144.1400,82.4380
144.1400,82.9420
144.1318,82.9833
144.1084,83.0184
144.0733,83.0418
144.0320,83.0500
Z" /> 
<path style="fill:#000000; fill-opacity:1.0000; stroke:none;fill-rule:evenodd;"
d="M 142.4680,86.8600
142.4267,86.8518
142.3916,86.8284
142.3682,86.7933
142.3600,86.7520
142.3600,86.2480
142.3682,86.2067
142.3916,86.1716
142.4267,86.1482
142.4680,86.1400
144.0320,86.1400
144.0733,86.1482
144.1084,86.1716
144.1318,86.2067
144.1400,86.2480
144.1400,86.7520
144.1318,86.7933
144.1084,86.8284
144.0733,86.8518
144.0320,86.8600
Z" /> 
<path style="fill:#000000; fill-opacity:1.0000; stroke:none;fill-rule:evenodd;"
d="M 142.4680,85.5900
142.4267,85.5818
142.3916,85.5584
142.3682,85.5233
142.3600,85.4820
142.3600,84.9780
142.3682,84.9367
142.3916,84.9016
142.4267,84.8782
142.4680,84.8700
144.0320,84.8700
144.0733,84.8782
144.1084,84.9016
144.1318,84.9367
144.1400,84.9780
144.1400,85.4820
144.1318,85.5233
144.1084,85.5584
144.0733,85.5818
144.0320,85.5900
Z" /> 
<path style="fill:#000000; fill-opacity:1.0000; stroke:none;fill-rule:evenodd;"
d="M 149.9300,80.1500
149.8343,80.1310
149.7532,80.0768
149.6990,79.9957
149.6800,79.9000
149.6800,78.2000
149.6990,78.1043
149.7532,78.0232
149.8343,77.9690
149.9300,77.9500
150.6300,77.9500
150.7257,77.9690
150.8068,78.0232
150.8610,78.1043
150.8800,78.2000
150.8800,79.9000
150.8610,79.9957
150.8068,80.0768
150.7257,80.1310
150.6300,80.1500
Z" /> 
<path style="fill:#000000; fill-opacity:1.0000; stroke:none;fill-rule:evenodd;"
d="M 145.3500,75.9500
145.2543,75.9310
145.1732,75.8768
145.1190,75.7957
145.1000,75.7000
145.1000,69.8000
145.1190,69.7043
145.1732,69.6232
145.2543,69.5690
145.3500,69.5500
150.6500,69.5500
150.7457,69.5690
150.8268,69.6232
150.8810,69.7043
150.9000,69.8000
150.9000,75.7000
150.8810,75.7957
150.8268,75.8768
150.7457,75.9310
150.6500,75.9500
Z" /> 
<path style="fill:#000000; fill-opacity:1.0000; stroke:none;fill-rule:evenodd;"
d="M 145.3700,80.1500
145.2743,80.1310
145.1932,80.0768
145.1390,79.9957
145.1200,79.9000
145.1200,78.2000
145.1390,78.1043
145.1932,78.0232
145.2743,77.9690
145.3700,77.9500
146.0700,77.9500
146.1657,77.9690
146.2468,78.0232
146.3010,78.1043
146.3200,78.2000
146.3200,79.9000
146.3010,79.9957
146.2468,80.0768
146.1657,80.1310
146.0700,80.1500
Z" /> 
<path style="fill:#000000; fill-opacity:1.0000; stroke:none;fill-rule:evenodd;"
d="M 133.7775,77.1000
133.6818,77.0810
133.6007,77.0268
133.5465,76.9457
133.5275,76.8500
133.5275,70.9500
133.5465,70.8543
133.6007,70.7732
133.6818,70.7190
133.7775,70.7000
139.0775,70.7000
139.1732,70.7190
139.2543,70.7732
139.3085,70.8543
139.3275,70.9500
139.3275,76.8500
139.3085,76.9457
139.2543,77.0268
139.1732,77.0810
139.0775,77.1000
Z" /> 
<path style="fill:#000000; fill-opacity:1.0000; stroke:none;fill-rule:evenodd;"
d="M 138.3575,81.3000
138.2618,81.2810
138.1807,81.2268
138.1265,81.1457
138.1075,81.0500
138.1075,79.3500
138.1265,79.2543
138.1807,79.1732
138.2618,79.1190
138.3575,79.1000
139.0575,79.1000
139.1532,79.1190
139.2343,79.1732
139.2885,79.2543
139.3075,79.3500
139.3075,81.0500
139.2885,81.1457
139.2343,81.2268
139.1532,81.2810
139.0575,81.3000
Z" /> 
<path style="fill:#000000; fill-opacity:1.0000; stroke:none;fill-rule:evenodd;"
d="M 133.7975,81.3000
133.7018,81.2810
133.6207,81.2268
133.5665,81.1457
133.5475,81.0500
133.5475,79.3500
133.5665,79.2543
133.6207,79.1732
133.7018,79.1190
133.7975,79.1000
134.4975,79.1000
134.5932,79.1190
134.6743,79.1732
134.7285,79.2543
134.7475,79.3500
134.7475,81.0500
134.7285,81.1457
134.6743,81.2268
134.5932,81.2810
134.4975,81.3000
Z" /> 
<path style="fill:#000000; fill-opacity:1.0000; stroke:none;fill-rule:evenodd;"
d="M 129.1500,67.1500
130.8500,67.1500
130.8500,68.8500
129.1500,68.8500
Z" /> 
</g>
<g style="fill:#000000; fill-opacity:1.0000; stroke:none;">
<circle cx="132.5400" cy="68.0000" r="0.8500" /> 
</g>
<g style="fill:#000000; fill-opacity:1.0000; stroke:none;">
<circle cx="129.0000" cy="66.0800" r="0.8000" /> 
</g>
<g style="fill:#000000; fill-opacity:1.0000; stroke:none;">
<circle cx="129.0000" cy="55.9200" r="0.8000" /> 
</g>
<g style="fill:#000000; fill-opacity:1.0000; stroke:none;">
<circle cx="127.7500" cy="53.2500" r="0.8000" /> 
</g>
<g style="fill:#000000; fill-opacity:1.0000; stroke:none;">
<circle cx="145.7500" cy="55.7500" r="0.8000" /> 
</g>
<g style="fill:#000000; fill-opacity:1.0000; stroke:none;">
<circle cx="135.8385" cy="87.6615" r="0.8000" /> 
</g>
<g style="fill:none; 
stroke:#000000; stroke-width:1.2000; stroke-opacity:1; 
stroke-linecap:round; stroke-linejoin:round;">
<path d="M130.2500 96.5246
L130.2500 99.5000
" />
</g>
<g style="fill:none; 
stroke:#000000; stroke-width:1.0000; stroke-opacity:1; 
stroke-linecap:round; stroke-linejoin:round;">
<path d="M131.4240 95.3440
L131.4306 95.3440
" />
</g>
<g style="fill:none; 
stroke:#000000; stroke-width:1.2000; stroke-opacity:1; 
stroke-linecap:round; stroke-linejoin:round;">
<path d="M124.5000 99.5000
L124.5000 99.7500
" />
</g>
<g style="fill:none; 
stroke:#000000; stroke-width:1.0000; stroke-opacity:1; 
stroke-linecap:round; stroke-linejoin:round;">
<path d="M152.2500 76.4100
L151.9100 76.7500
" />
</g>
<g style="fill:none; 
stroke:#000000; stroke-width:1.2000; stroke-opacity:1; 
stroke-linecap:round; stroke-linejoin:round;">
<path d="M151.9010 80.6710
L151.9010 89.1790
" />
<path d="M151.9010 79.5990
L151.9100 79.5900
" />
</g>
<g style="fill:none; 
stroke:#000000; stroke-width:1.5000; stroke-opacity:1; 
stroke-linecap:round; stroke-linejoin:round;">
<path d="M140.5000 67.7250
L140.5000 65.5000
" />
</g>
<g style="fill:none; 
stroke:#000000; stroke-width:1.2000; stroke-opacity:1; 
stroke-linecap:round; stroke-linejoin:round;">
<path d="M150.2800 79.0500
L151.9010 80.6710
" />
<path d="M151.9100 79.5900
L151.9100 76.7500
" />
</g>
<g style="fill:none; 
stroke:#000000; stroke-width:1.5000; stroke-opacity:1; 
stroke-linecap:round; stroke-linejoin:round;">
<path d="M131.4190 81.9065
L131.4190 70.0810
" />
</g>
<g style="fill:none; 
stroke:#000000; stroke-width:1.2000; stroke-opacity:1; 
stroke-linecap:round; stroke-linejoin:round;">
<path d="M150.2800 90.8000
L150.2800 93.9669
" />
<path d="M151.9010 89.1790
L150.2800 90.8000
" />
<path d="M133.3470 95.3440
L131.4306 95.3440
" />
</g>
<g style="fill:none; 
stroke:#000000; stroke-width:1.5000; stroke-opacity:1; 
stroke-linecap:round; stroke-linejoin:round;">
<path d="M141.0250 68.2500
L147.7500 68.2500
" />
</g>
<g style="fill:none; 
stroke:#000000; stroke-width:1.2000; stroke-opacity:1; 
stroke-linecap:round; stroke-linejoin:round;">
<path d="M125.6350 98.3650
L124.5000 99.5000
" />
<path d="M135.9641 97.9610
L133.3470 95.3440
" />
</g>
<g style="fill:none; 
stroke:#000000; stroke-width:1.5000; stroke-opacity:1; 
stroke-linecap:round; stroke-linejoin:round;">
<path d="M132.5625 83.0500
L131.4190 81.9065
" />
<path d="M131.4190 70.0810
L132.5400 68.9600
" />
</g>
<g style="fill:none; 
stroke:#000000; stroke-width:1.2000; stroke-opacity:1; 
stroke-linecap:round; stroke-linejoin:round;">
<path d="M151.9010 80.6710
L151.9010 79.5990
" />
<path d="M131.4306 95.3440
L130.2500 96.5246
" />
<path d="M124.5000 99.7500
L125.6550 100.9050
" />
<path d="M146.2859 97.9610
L135.9641 97.9610
" />
<path d="M128.7540 100.9960
L127.7500 100.9960
" />
<path d="M130.2500 99.5000
L128.7540 100.9960
" />
</g>
<g style="fill:none; 
stroke:#000000; stroke-width:1.0000; stroke-opacity:1; 
stroke-linecap:round; stroke-linejoin:round;">
<path d="M128.0000 104.1600
L128.0000 101.2460
" />
</g>
<g style="fill:none; 
stroke:#000000; stroke-width:1.2000; stroke-opacity:1; 
stroke-linecap:round; stroke-linejoin:round;">
<path d="M150.2800 93.9669
L146.2859 97.9610
" />
</g>
<g style="fill:none; 
stroke:#000000; stroke-width:1.5000; stroke-opacity:1; 
stroke-linecap:round; stroke-linejoin:round;">
<path d="M141.0250 68.2500
L140.5000 67.7250
" />
</g>
<g style="fill:none; 
stroke:#000000; stroke-width:1.0000; stroke-opacity:1; 
stroke-linecap:round; stroke-linejoin:round;">
<path d="M152.2500 72.5800
L152.2500 76.4100
" />
</g>
<g style="fill:none; 
stroke:#000000; stroke-width:1.2000; stroke-opacity:1; 
stroke-linecap:round; stroke-linejoin:round;">
<path d="M125.6550 100.9050
L126.7150 100.9050
" />
</g>
<g style="fill:none; 
stroke:#000000; stroke-width:1.5000; stroke-opacity:1; 
stroke-linecap:round; stroke-linejoin:round;">
<path d="M132.5400 68.9600
L132.5400 68.0000
" />
</g>
<g style="fill:none; 
stroke:#000000; stroke-width:1.2000; stroke-opacity:1; 
stroke-linecap:round; stroke-linejoin:round;">
<path d="M127.7500 100.9960
L126.7150 100.9960
" />
</g>
<g style="fill:none; 
stroke:#000000; stroke-width:1.0000; stroke-opacity:1; 
stroke-linecap:round; stroke-linejoin:round;">
<path d="M128.0000 101.2460
L127.7500 100.9960
" />
</g>
<g style="fill:none; 
stroke:#000000; stroke-width:1.5000; stroke-opacity:1; 
stroke-linecap:round; stroke-linejoin:round;">
<path d="M135.0400 65.5000
L140.5000 65.5000
" />
<path d="M132.5400 68.0000
L135.0400 65.5000
" />
</g>
<g style="fill:none; 
stroke:#000000; stroke-width:1.0000; stroke-opacity:1; 
stroke-linecap:round; stroke-linejoin:round;">
<path d="M135.5000 60.7500
L135.5000 65.0400
" />
</g>
<g style="fill:none; 
stroke:#000000; stroke-width:1.2000; stroke-opacity:1; 
stroke-linecap:round; stroke-linejoin:round;">
<path d="M126.7150 98.3650
L125.6350 98.3650
" />
</g>
<g style="fill:none; 
stroke:#000000; stroke-width:1.0000; stroke-opacity:1; 
stroke-linecap:round; stroke-linejoin:round;">
<path d="M135.5000 65.0400
L135.0400 65.5000
" />
<path d="M141.1839 63.8490
L143.5849 66.2500
" />
</g>
<g style="fill:none; 
stroke:#000000; stroke-width:1.5000; stroke-opacity:1; 
stroke-linecap:round; stroke-linejoin:round;">
<path d="M148.8814 66.2500
L150.5000 67.8686
" />
<path d="M150.5000 67.8686
L150.5000 70.2500
" />
</g>
<g style="fill:none; 
stroke:#000000; stroke-width:1.0000; stroke-opacity:1; 
stroke-linecap:round; stroke-linejoin:round;">
<path d="M139.1240 63.8490
L141.1839 63.8490
" />
</g>
<g style="fill:none; 
stroke:#000000; stroke-width:1.5000; stroke-opacity:1; 
stroke-linecap:round; stroke-linejoin:round;">
<path d="M147.7500 66.2500
L148.8814 66.2500
" />
<path d="M150.5000 70.2500
L148.0000 72.7500
" />
<path d="M148.0000 72.7500
L148.0000 84.5000
" />
</g>
<g style="fill:none; 
stroke:#000000; stroke-width:1.0000; stroke-opacity:1; 
stroke-linecap:round; stroke-linejoin:round;">
<path d="M138.0000 62.7250
L139.1240 63.8490
" />
<path d="M143.5849 66.2500
L147.7500 66.2500
" />
<path d="M138.0000 60.7500
L138.0000 62.7250
" />
</g>
<g style="fill:none; 
stroke:#000000; stroke-width:0.8000; stroke-opacity:1; 
stroke-linecap:round; stroke-linejoin:round;">
<path d="M143.0000 60.7500
L145.7500 58.0000
" />
<path d="M124.1510 94.5310
L125.6850 96.0650
" />
<path d="M126.7150 97.0950
L125.6850 96.0650
" />
<path d="M127.7500 54.5242
L124.1510 58.1232
" />
<path d="M145.7500 58.0000
L145.7500 55.7500
" />
<path d="M124.1510 58.1232
L124.1510 94.5310
" />
</g>
<g style="fill:none; 
stroke:#000000; stroke-width:1.0000; stroke-opacity:1; 
stroke-linecap:round; stroke-linejoin:round;">
<path d="M128.0000 94.0000
L125.9350 96.0650
" />
</g>
<g style="fill:none; 
stroke:#000000; stroke-width:0.8000; stroke-opacity:1; 
stroke-linecap:round; stroke-linejoin:round;">
<path d="M127.7500 53.2500
L127.7500 54.5242
" />
</g>
<g style="fill:none; 
stroke:#000000; stroke-width:1.0000; stroke-opacity:1; 
stroke-linecap:round; stroke-linejoin:round;">
<path d="M125.9350 96.0650
L125.6850 96.0650
" />
<path d="M141.7500 53.0000
L141.7500 53.1250
" />
<path d="M131.5000 61.7500
L131.5000 65.1700
" />
<path d="M135.2500 58.0000
L131.5000 61.7500
" />
<path d="M136.8750 58.0000
L135.2500 58.0000
" />
<path d="M141.7500 53.1250
L136.8750 58.0000
" />
</g>
<g style="fill:none; 
stroke:#000000; stroke-width:0.8000; stroke-opacity:1; 
stroke-linecap:round; stroke-linejoin:round;">
<path d="M131.0000 60.0800
L134.1810 56.8990
" />
<path d="M135.4760 56.8990
L139.2500 53.1250
" />
<path d="M139.2500 53.1250
L139.2500 53.0000
" />
<path d="M134.1810 56.8990
L135.4760 56.8990
" />
<path d="M143.4010 57.8490
L143.4010 50.6510
" />
<path d="M143.4010 50.6510
L140.9010 48.1510
" />
<path d="M125.3520 61.5493
L125.3520 90.6020
" />
</g>
<g style="fill:none; 
stroke:#000000; stroke-width:1.0000; stroke-opacity:1; 
stroke-linecap:round; stroke-linejoin:round;">
<path d="M152.2500 62.4200
L151.4500 63.2200
" />
</g>
<g style="fill:none; 
stroke:#000000; stroke-width:0.8000; stroke-opacity:1; 
stroke-linecap:round; stroke-linejoin:round;">
<path d="M127.1490 92.3990
L128.6632 92.3990
" />
<path d="M140.9010 48.1510
L135.0990 48.1510
" />
<path d="M133.0000 53.9013
L125.3520 61.5493
" />
<path d="M129.6010 94.6632
L128.7500 95.5142
" />
</g>
<g style="fill:none; 
stroke:#000000; stroke-width:1.0000; stroke-opacity:1; 
stroke-linecap:round; stroke-linejoin:round;">
<path d="M142.7200 63.2200
L140.5000 61.0000
" />
<path d="M140.5000 61.0000
L140.5000 60.7500
" />
</g>
<g style="fill:none; 
stroke:#000000; stroke-width:0.8000; stroke-opacity:1; 
stroke-linecap:round; stroke-linejoin:round;">
<path d="M128.6632 92.3990
L129.6010 93.3368
" />
</g>
<g style="fill:none; 
stroke:#000000; stroke-width:1.0000; stroke-opacity:1; 
stroke-linecap:round; stroke-linejoin:round;">
<path d="M151.4500 63.2200
L142.7200 63.2200
" />
</g>
<g style="fill:none; 
stroke:#000000; stroke-width:0.8000; stroke-opacity:1; 
stroke-linecap:round; stroke-linejoin:round;">
<path d="M135.0990 48.1510
L133.0000 50.2500
" />
<path d="M125.3520 90.6020
L127.1490 92.3990
" />
<path d="M127.8075 99.5950
L126.7150 99.5950
" />
<path d="M128.7500 98.6525
L127.8075 99.5950
" />
<path d="M140.5000 60.7500
L143.4010 57.8490
" />
<path d="M128.7500 95.5142
L128.7500 98.6525
" />
<path d="M129.6010 93.3368
L129.6010 94.6632
" />
<path d="M133.0000 50.2500
L133.0000 53.9013
" />
<path d="M132.5625 84.9500
L132.2691 84.9500
" />
<path d="M137.6700 52.0800
L136.7500 53.0000
" />
</g>
<g style="fill:none; 
stroke:#000000; stroke-width:1.0000; stroke-opacity:1; 
stroke-linecap:round; stroke-linejoin:round;">
<path d="M127.2990 61.4510
L135.7500 53.0000
" />
<path d="M135.7500 53.0000
L136.7500 53.0000
" />
<path d="M127.3990 80.0799
L127.2990 79.9799
" />
<path d="M127.2990 79.9799
L127.2990 61.4510
" />
</g>
<g style="fill:none; 
stroke:#000000; stroke-width:0.8000; stroke-opacity:1; 
stroke-linecap:round; stroke-linejoin:round;">
<path d="M137.6700 49.5000
L137.6700 52.0800
" />
<path d="M132.2691 84.9500
L127.3990 80.0799
" />
</g>
<g style="fill:none; 
stroke:#000000; stroke-width:1.5000; stroke-opacity:1; 
stroke-linecap:round; stroke-linejoin:round;">
<path d="M132.5625 97.0950
L132.2850 97.0950
" />
<path d="M136.7150 100.8250
L137.0000 100.5400
" />
<path d="M132.2850 97.0950
L132.2850 98.1240
" />
<path d="M137.0000 100.5400
L136.0075 100.5400
" />
<path d="M136.0075 100.5400
L132.5625 97.0950
" />
<path d="M137.7500 67.9750
L138.0000 67.7250
" />
<path d="M139.3750 90.7500
L139.3750 94.8350
" />
<path d="M139.3750 86.7810
L137.6800 86.7810
" />
<path d="M139.3750 94.8350
L140.0000 95.4600
" />
</g>
<g style="fill:none; 
stroke:#000000; stroke-width:0.8000; stroke-opacity:1; 
stroke-linecap:round; stroke-linejoin:round;">
<path d="M132.9265 78.9790
L132.9265 70.5906
" />
</g>
<g style="fill:none; 
stroke:#000000; stroke-width:1.5000; stroke-opacity:1; 
stroke-linecap:round; stroke-linejoin:round;">
<path d="M141.4090 84.7470
L141.4090 80.8847
" />
<path d="M145.2500 95.4600
L140.0000 95.4600
" />
<path d="M143.9490 78.3447
L143.9490 73.8710
" />
</g>
<g style="fill:none; 
stroke:#000000; stroke-width:1.0000; stroke-opacity:1; 
stroke-linecap:round; stroke-linejoin:round;">
<path d="M140.0800 91.2500
L139.3300 90.5000
" />
</g>
<g style="fill:none; 
stroke:#000000; stroke-width:1.5000; stroke-opacity:1; 
stroke-linecap:round; stroke-linejoin:round;">
<path d="M138.0000 67.9220
L138.0000 67.7250
" />
<path d="M140.0000 95.4600
L137.0000 95.4600
" />
<path d="M139.3750 86.7810
L141.4090 84.7470
" />
</g>
<g style="fill:none; 
stroke:#000000; stroke-width:0.8000; stroke-opacity:1; 
stroke-linecap:round; stroke-linejoin:round;">
<path d="M134.1475 80.2000
L132.9265 78.9790
" />
</g>
<g style="fill:none; 
stroke:#000000; stroke-width:1.5000; stroke-opacity:1; 
stroke-linecap:round; stroke-linejoin:round;">
<path d="M141.4090 80.8847
L143.9490 78.3447
" />
<path d="M139.3750 86.7810
L139.3750 90.7500
" />
</g>
<g style="fill:none; 
stroke:#000000; stroke-width:1.0000; stroke-opacity:1; 
stroke-linecap:round; stroke-linejoin:round;">
<path d="M142.1700 91.2500
L140.0800 91.2500
" />
</g>
<g style="fill:none; 
stroke:#000000; stroke-width:0.8000; stroke-opacity:1; 
stroke-linecap:round; stroke-linejoin:round;">
<path d="M132.9265 70.5906
L135.7921 67.7250
" />
</g>
<g style="fill:none; 
stroke:#000000; stroke-width:1.5000; stroke-opacity:1; 
stroke-linecap:round; stroke-linejoin:round;">
<path d="M143.9490 73.8710
L138.0000 67.9220
" />
</g>
<g style="fill:none; 
stroke:#000000; stroke-width:0.8000; stroke-opacity:1; 
stroke-linecap:round; stroke-linejoin:round;">
<path d="M135.7921 67.7250
L138.0000 67.7250
" />
</g>
<g style="fill:none; 
stroke:#000000; stroke-width:1.5000; stroke-opacity:1; 
stroke-linecap:round; stroke-linejoin:round;">
<path d="M135.1300 103.7500
L132.2850 100.9050
" />
<path d="M142.0400 103.7500
L135.1300 103.7500
" />
<path d="M132.2850 100.9050
L132.2850 100.0250
" />
<path d="M145.2500 100.5400
L142.0400 103.7500
" />
</g>
<g style="fill:none; 
stroke:#000000; stroke-width:1.2000; stroke-opacity:1; 
stroke-linecap:round; stroke-linejoin:round;">
<path d="M134.4375 85.4444
L133.5309 86.3510
" />
</g>
<g style="fill:none; 
stroke:#000000; stroke-width:0.8000; stroke-opacity:1; 
stroke-linecap:round; stroke-linejoin:round;">
<path d="M137.6800 82.6900
L135.7475 82.6900
" />
<path d="M135.7475 82.6900
L134.4375 84.0000
" />
</g>
<g style="fill:none; 
stroke:#000000; stroke-width:1.2000; stroke-opacity:1; 
stroke-linecap:round; stroke-linejoin:round;">
<path d="M130.2710 86.3510
L129.0000 85.0800
" />
<path d="M133.5309 86.3510
L130.2710 86.3510
" />
</g>
<g style="fill:none; 
stroke:#000000; stroke-width:0.8000; stroke-opacity:1; 
stroke-linecap:round; stroke-linejoin:round;">
<path d="M138.7075 80.2000
L138.7075 81.6625
" />
</g>
<g style="fill:none; 
stroke:#000000; stroke-width:1.0000; stroke-opacity:1; 
stroke-linecap:round; stroke-linejoin:round;">
<path d="M129.1700 87.4520
L130.2710 86.3510
" />
</g>
<g style="fill:none; 
stroke:#000000; stroke-width:1.2000; stroke-opacity:1; 
stroke-linecap:round; stroke-linejoin:round;">
<path d="M134.4375 84.0000
L134.4375 85.4444
" />
</g>
<g style="fill:none; 
stroke:#000000; stroke-width:1.0000; stroke-opacity:1; 
stroke-linecap:round; stroke-linejoin:round;">
<path d="M129.1700 90.5000
L129.1700 87.4520
" />
</g>
<g style="fill:none; 
stroke:#000000; stroke-width:0.8000; stroke-opacity:1; 
stroke-linecap:round; stroke-linejoin:round;">
<path d="M138.7075 81.6625
L137.6800 82.6900
" />
<path d="M139.9085 78.5915
L139.9085 84.0540
" />
<path d="M141.7500 76.7500
L139.2775 76.7500
" />
<path d="M138.7325 85.2300
L137.6800 85.2300
" />
<path d="M139.9085 84.0540
L138.7325 85.2300
" />
<path d="M139.2775 76.7500
L136.4275 73.9000
" />
<path d="M141.7500 76.7500
L139.9085 78.5915
" />
<path d="M129.0000 66.0800
L129.0000 67.0000
" />
<path d="M129.0000 69.0000
L129.0000 74.9200
" />
<path d="M136.6275 83.9600
L135.8385 84.7490
" />
<path d="M129.0000 67.0000
L130.0000 68.0000
" />
<path d="M130.0000 68.0000
L129.0000 69.0000
" />
<path d="M137.6800 83.9600
L136.6275 83.9600
" />
<path d="M135.8385 84.7490
L135.8385 87.6615
" />
</g>
<g style="fill:none; 
stroke:#000000; stroke-width:1.2000; stroke-opacity:1; 
stroke-linecap:round; stroke-linejoin:round;">
<path d="M143.2500 88.3300
L143.2500 85.4700
" />
<path d="M145.7200 90.8000
L143.2500 88.3300
" />
<path d="M143.2500 81.5200
L143.2500 83.8690
" />
<path d="M145.7200 79.0500
L143.2500 81.5200
" />
<path style="fill:#000000; fill-opacity:1.0000; stroke:none;fill-rule:evenodd;"
d="M 150.5631,76.4702
150.6088,76.5230
150.6188,76.5921
150.6185,76.5939
150.6100,76.6477
150.6100,76.8523
150.6420,77.0544
150.7052,77.2490
150.7158,77.2697
150.7287,77.3384
150.7024,77.4031
150.6453,77.4434
150.6053,77.4500
150.5300,77.4500
150.5300,78.8000
151.3800,78.8000
151.3800,78.1500
151.3800,78.1500
151.3776,78.1270
151.3904,78.0583
151.4383,78.0074
151.5061,77.9905
151.5393,77.9965
151.6056,78.0180
151.6056,78.0180
151.8077,78.0500
152.0123,78.0500
152.2144,78.0180
152.4090,77.9548
152.5692,77.8731
152.6379,77.8602
152.7026,77.8865
152.7429,77.9436
152.7495,77.9836
152.7495,89.8545
152.7298,89.9216
152.6770,89.9673
152.6079,89.9773
152.6061,89.9770
152.4630,89.9543
152.4324,89.9495
152.2276,89.9495
152.2033,89.9534
152.0255,89.9815
151.8308,90.0448
151.6484,90.1377
151.5769,90.1897
151.5111,90.2131
151.4430,90.1973
151.3943,90.1472
151.3800,90.0893
151.3800,89.9000
151.3800,89.9000
151.3695,89.7973
151.3144,89.6309
151.3144,89.6309
151.2223,89.4817
151.0983,89.3577
150.9491,89.2656
150.9491,89.2656
150.7827,89.2105
150.7827,89.2105
150.6800,89.2000
150.5300,89.2000
150.5300,92.4000
150.6800,92.4000
150.6800,92.4000
150.7827,92.3895
150.9491,92.3344
150.9491,92.3344
151.0983,92.2423
151.2031,92.1376
151.2644,92.1041
151.3341,92.1091
151.3784,92.1376
151.4828,92.2420
151.6377,92.3546
151.6484,92.3623
151.7646,92.4215
151.8308,92.4552
151.8308,92.4552
151.8308,92.4552
151.9105,92.4811
152.0255,92.5185
152.0539,92.5230
152.2276,92.5505
152.2276,92.5505
152.4324,92.5505
152.4324,92.5505
152.6061,92.5230
152.6754,92.5319
152.7288,92.5769
152.7495,92.6437
152.7495,92.6455
152.7495,104.6255
152.7298,104.6925
152.6770,104.7383
152.6255,104.7495
143.1083,104.7495
143.0413,104.7298
142.9955,104.6770
142.9856,104.6079
143.0146,104.5443
143.0207,104.5378
144.9817,102.5768
145.0430,102.5433
145.0693,102.5405
146.7979,102.5405
146.7979,102.5405
146.8575,102.5341
146.9923,102.4838
147.1075,102.3975
147.1938,102.2823
147.2441,102.1475
147.2505,102.0879
147.2505,98.9921
147.2441,98.9325
147.2409,98.9239
147.1938,98.7977
147.1938,98.7977
147.1075,98.6825
147.1075,98.6825
146.9923,98.5962
146.9923,98.5962
146.8575,98.5459
146.8575,98.5459
146.7979,98.5395
146.7979,98.5395
146.7979,98.5395
146.7979,98.5395
143.7021,98.5395
143.7021,98.5395
143.6425,98.5459
143.5077,98.5962
143.5077,98.5962
143.3925,98.6825
143.3925,98.6825
143.3062,98.7977
143.3062,98.7977
143.2559,98.9325
143.2498,98.9897
143.2495,98.9921
143.2495,98.9921
143.2495,100.7207
143.2298,100.7877
143.2132,100.8083
141.5583,102.4632
141.4970,102.4967
141.4707,102.4995
139.0289,102.4995
138.9619,102.4798
138.9162,102.4270
138.9062,102.3579
138.9297,102.3012
138.9310,102.2994
138.9438,102.2823
138.9941,102.1475
139.0005,102.0879
139.0005,98.9921
138.9941,98.9325
138.9909,98.9239
138.9438,98.7977
138.9438,98.7977
138.8575,98.6825
138.8575,98.6825
138.7423,98.5962
138.7423,98.5962
138.6075,98.5459
138.6075,98.5459
138.5479,98.5395
138.5479,98.5395
138.5479,98.5395
138.5479,98.5395
135.8268,98.5395
135.7598,98.5198
135.7391,98.5032
133.3771,96.1412
133.3771,96.1412
133.2179,96.0255
133.2127,96.0228
133.0425,95.9361
132.8553,95.8753
132.6609,95.8445
132.6609,95.8445
132.3834,95.8445
132.1866,95.8445
132.1866,95.8445
131.9922,95.8753
131.8050,95.9361
131.6296,96.0255
131.4704,96.1412
131.3910,96.2206
131.3507,96.2474
131.1961,96.3115
131.0690,96.4090
130.9715,96.5361
130.9102,96.6841
130.9102,96.6842
130.8945,96.8031
130.8945,97.3869
130.9102,97.5058
130.9102,97.5059
130.9715,97.6539
130.9715,97.6539
130.9715,97.6539
130.9720,97.6545
130.9722,97.6552
130.9755,97.6609
130.9746,97.6614
130.9972,97.7197
130.9831,97.7881
130.9720,97.8055
130.9717,97.8059
130.9715,97.8061
130.9715,97.8061
130.9102,97.9541
130.9102,97.9541
130.8945,98.0731
130.8945,98.6569
130.9102,98.7758
130.9102,98.7759
130.9715,98.9239
130.9715,98.9239
130.9715,98.9239
130.9720,98.9245
130.9722,98.9252
130.9755,98.9309
130.9746,98.9314
130.9972,98.9897
130.9831,99.0581
130.9720,99.0755
130.9716,99.0760
130.9715,99.0761
130.9715,99.0761
130.9102,99.2241
130.9102,99.2241
130.8945,99.3431
130.8945,99.9269
130.9102,100.0458
130.9102,100.0459
130.9715,100.1939
130.9715,100.1939
130.9715,100.1939
130.9720,100.1945
130.9722,100.1952
130.9755,100.2009
130.9746,100.2014
130.9972,100.2597
130.9831,100.3281
130.9720,100.3455
130.9717,100.3459
130.9715,100.3461
130.9715,100.3461
130.9102,100.4941
130.9102,100.4941
130.8945,100.6131
130.8945,101.1969
130.9102,101.3158
130.9102,101.3159
130.9106,101.3169
130.9715,101.4639
131.0690,101.5910
131.1961,101.6885
131.2992,101.7312
131.3508,101.7526
131.3910,101.7795
134.1493,104.5378
134.1828,104.5991
134.1778,104.6688
134.1360,104.7248
134.0705,104.7492
134.0617,104.7495
129.3460,104.7495
129.2790,104.7298
129.2332,104.6770
129.2233,104.6079
129.2281,104.5872
129.2680,104.4644
129.3000,104.2623
129.3000,104.0577
129.2680,103.8556
129.2048,103.6610
129.1119,103.4787
129.0795,103.4341
129.0795,103.4341
128.4000,104.1136
128.4000,104.1073
128.3727,104.0056
128.3201,103.9144
128.2456,103.8399
128.1544,103.7873
128.0527,103.7600
128.0464,103.7600
128.7259,103.0805
128.7259,103.0805
128.6814,103.0481
128.6813,103.0481
128.4990,102.9552
128.3044,102.8920
128.1023,102.8600
127.8977,102.8600
127.6956,102.8920
127.5010,102.9552
127.3186,103.0481
127.2741,103.0805
127.2741,103.0805
127.9536,103.7600
127.9473,103.7600
127.8456,103.7873
127.7544,103.8399
127.6799,103.9144
127.6273,104.0056
127.6000,104.1073
127.6000,104.1136
126.9205,103.4341
126.9205,103.4341
126.8881,103.4786
126.7952,103.6610
126.7320,103.8556
126.7000,104.0577
126.7000,104.2623
126.7320,104.4644
126.7719,104.5872
126.7739,104.6570
126.7378,104.7169
126.6751,104.7477
126.6540,104.7495
123.8745,104.7495
123.8075,104.7298
123.7617,104.6770
123.7505,104.6255
123.7505,101.1968
125.3250,101.1968
125.3406,101.3157
125.3407,101.3157
125.4019,101.4636
125.4994,101.5906
125.6264,101.6881
125.7743,101.7493
125.7743,101.7493
125.8932,101.7650
126.4650,101.7650
126.9650,101.7650
127.5368,101.7650
127.6557,101.7494
127.6557,101.7493
127.8036,101.6881
127.9306,101.5906
128.0281,101.4636
128.0893,101.3157
128.0893,101.3157
128.1050,101.1969
128.1050,101.1968
128.1050,101.1550
126.9650,101.1550
126.9650,101.7650
126.4650,101.7650
126.4650,101.7650
126.4650,101.1550
125.3250,101.1550
125.3250,101.1968
123.7505,101.1968
123.7505,95.7034
123.7702,95.6363
123.8230,95.5906
123.8921,95.5806
123.9557,95.6096
123.9622,95.6157
124.7194,96.3729
124.7463,96.4131
124.7984,96.5389
124.7984,96.5389
124.9079,96.7028
124.9079,96.7028
125.0472,96.8421
125.2111,96.9516
125.2111,96.9516
125.2480,96.9669
125.3024,97.0107
125.3244,97.0770
125.3245,97.0815
125.3245,97.3869
125.3402,97.5058
125.3402,97.5059
125.4015,97.6539
125.4015,97.6539
125.4023,97.6549
125.4027,97.6560
125.4055,97.6609
125.4048,97.6614
125.4275,97.7201
125.4134,97.7885
125.4023,97.8059
125.4019,97.8064
125.4019,97.8064
125.3407,97.9543
125.3406,97.9543
125.3250,98.0731
125.3250,98.1150
126.5910,98.1150
126.6580,98.1347
126.7038,98.1875
126.7150,98.2390
126.7150,98.4910
126.6953,98.5580
126.6425,98.6038
126.5910,98.6150
125.3250,98.6150
125.3250,98.6568
125.3406,98.7757
125.3407,98.7757
125.4019,98.9236
125.4019,98.9236
125.4023,98.9241
125.4025,98.9246
125.4060,98.9307
125.4050,98.9312
125.4275,98.9893
125.4134,99.0577
125.4023,99.0751
125.4015,99.0761
125.4015,99.0761
125.3402,99.2241
125.3402,99.2241
125.3245,99.3431
125.3245,99.9269
125.3402,100.0458
125.3402,100.0459
125.4015,100.1939
125.4015,100.1939
125.4023,100.1949
125.4027,100.1960
125.4055,100.2009
125.4048,100.2014
125.4275,100.2601
125.4134,100.3285
125.4023,100.3459
125.4019,100.3464
125.4019,100.3464
125.3407,100.4943
125.3406,100.4943
125.3250,100.6131
125.3250,100.6550
128.1050,100.6550
128.1050,100.6132
128.0966,100.5494
128.1009,100.5220
128.1018,100.4943
128.1036,100.4917
128.1037,100.4898
128.1065,100.4861
128.1074,100.4804
128.1258,100.4596
128.1416,100.4368
128.1448,100.4349
128.1456,100.4338
128.1519,100.4303
128.1538,100.4281
128.1719,100.4188
128.1725,100.4185
128.2341,100.3930
128.3039,100.3464
128.3419,100.3210
128.3551,100.3121
128.3816,100.2945
129.4495,99.2265
129.4502,99.2255
129.5480,99.0791
129.5492,99.0761
129.5808,99.0000
129.6159,98.9152
129.6505,98.7412
129.6505,95.9385
129.6702,95.8715
129.6868,95.8508
130.3005,95.2372
130.3005,95.2372
130.3259,95.1991
130.3990,95.0897
130.4445,94.9800
130.4669,94.9258
130.5015,94.7518
130.5015,94.5745
130.5015,93.2482
130.4913,93.1970
130.4669,93.0742
130.4013,92.9159
130.3997,92.9113
130.3005,92.7628
130.3005,92.7628
130.1750,92.6374
129.4905,91.9529
129.4570,91.8915
129.4620,91.8218
129.5039,91.7659
129.5399,91.7472
129.6692,91.7052
129.8516,91.6123
130.0082,91.4985
130.0172,91.4920
130.0172,91.4920
130.0172,91.4920
130.1620,91.3472
130.1620,91.3472
130.1620,91.3472
130.2547,91.2195
130.2823,91.1816
130.3752,90.9992
130.4385,90.8045
130.4705,90.6024
130.4705,90.3976
130.4470,90.2493
130.4385,90.1955
130.4091,90.1051
130.3752,90.0008
130.3752,90.0008
130.3752,90.0008
130.3415,89.9346
130.2823,89.8184
130.2669,89.7972
130.1942,89.6971
130.1707,89.6313
130.1705,89.6242
130.1705,87.9178
130.1902,87.8507
130.2068,87.8301
130.5491,87.4878
130.6104,87.4543
130.6368,87.4515
133.6175,87.4515
133.6175,87.4515
133.7886,87.4244
133.9534,87.3709
134.1077,87.2922
134.2478,87.1904
134.4509,86.9874
134.5122,86.9539
134.5819,86.9589
134.6378,87.0008
134.6622,87.0662
134.6490,87.1314
134.6333,87.1623
134.6333,87.1623
134.6333,87.1623
134.6256,87.1860
134.5700,87.3570
134.5380,87.5591
134.5380,87.7638
134.5700,87.9660
134.6333,88.1607
134.7262,88.3431
134.8465,88.5087
134.9913,88.6535
135.1462,88.7661
135.1569,88.7738
135.2731,88.8330
135.3393,88.8667
135.3393,88.8667
135.3393,88.8667
135.4436,88.9006
135.5340,88.9300
135.6351,88.9460
135.7361,88.9620
135.7361,88.9620
135.9409,88.9620
135.9409,88.9620
136.1430,88.9300
136.3377,88.8667
136.5201,88.7738
136.6131,88.7062
136.6857,88.6535
136.6857,88.6535
136.6857,88.6535
136.8305,88.5087
136.8305,88.5087
136.8305,88.5087
136.8974,88.4166
136.9508,88.3431
137.0437,88.1607
137.0852,88.0330
137.1247,87.9753
137.1890,87.9481
137.2415,87.9534
137.3571,87.9909
137.3872,88.0007
137.5816,88.0315
137.5816,88.0315
138.0005,88.0315
138.0675,88.0512
138.1133,88.1040
138.1245,88.1555
138.1245,89.9821
138.1184,90.0204
138.0615,90.1955
138.0615,90.1955
138.0295,90.3976
138.0295,90.6024
138.0615,90.8045
138.0994,90.9210
138.1184,90.9796
138.1245,91.0179
138.1245,93.5845
138.1048,93.6515
138.0520,93.6972
137.9828,93.7072
137.9385,93.6918
137.9081,93.6743
137.8867,93.6620
137.8867,93.6620
137.8867,93.6620
137.6444,93.5616
137.6444,93.5616
137.6444,93.5616
137.3911,93.4937
137.3333,93.4861
137.1311,93.4595
137.1311,93.4595
136.8689,93.4595
136.8689,93.4595
136.6378,93.4899
136.6089,93.4937
136.3556,93.5616
136.3556,93.5616
136.1133,93.6620
136.1133,93.6620
135.8862,93.7931
135.6781,93.9527
135.4927,94.1381
135.3331,94.3462
135.2020,94.5733
135.2020,94.5733
135.1016,94.8156
135.1016,94.8156
135.0576,94.9800
135.0337,95.0689
134.9995,95.3289
134.9995,95.5911
135.0143,95.7034
135.0337,95.8511
135.0804,96.0255
135.1016,96.1044
135.1016,96.1044
135.2020,96.3467
135.2020,96.3467
135.3331,96.5738
135.4927,96.7819
135.4927,96.7819
135.6781,96.9673
135.6781,96.9673
135.8862,97.1269
136.1133,97.2580
136.1133,97.2580
136.3556,97.3584
136.3556,97.3584
136.6089,97.4263
136.8689,97.4605
136.8689,97.4605
137.1311,97.4605
137.1311,97.4605
137.3911,97.4263
137.6444,97.3584
137.8867,97.2580
138.1138,97.1269
138.3219,96.9673
138.3219,96.9673
138.3219,96.9673
138.5073,96.7819
138.5073,96.7819
138.5073,96.7819
138.5248,96.7590
138.5812,96.7178
138.6232,96.7105
139.9016,96.7105
143.6268,96.7105
143.6939,96.7302
143.7252,96.7590
143.7427,96.7819
143.7427,96.7819
143.7427,96.7819
143.9281,96.9673
143.9281,96.9673
144.1362,97.1269
144.3633,97.2580
144.3633,97.2580
144.6056,97.3584
144.6056,97.3584
144.8589,97.4263
145.1189,97.4605
145.1189,97.4605
145.3811,97.4605
145.3811,97.4605
145.6411,97.4263
145.8944,97.3584
146.1367,97.2580
146.3638,97.1269
146.5719,96.9673
146.5719,96.9673
146.5719,96.9673
146.7573,96.7819
146.7573,96.7819
146.7573,96.7819
146.9169,96.5738
147.0480,96.3467
147.0626,96.3115
147.1027,96.2148
147.1484,96.1044
147.2163,95.8511
147.2505,95.5911
147.2505,95.3289
147.2163,95.0689
147.1484,94.8156
147.1484,94.8156
147.0480,94.5733
147.0480,94.5733
146.9169,94.3462
146.7748,94.1610
146.7573,94.1381
146.7573,94.1381
146.7573,94.1381
146.5719,93.9527
146.5719,93.9527
146.3638,93.7931
146.1367,93.6620
146.1367,93.6620
145.8944,93.5616
145.8944,93.5616
145.8944,93.5616
145.6411,93.4937
145.5833,93.4861
145.3811,93.4595
145.3811,93.4595
145.1189,93.4595
145.1189,93.4595
144.8878,93.4899
144.8589,93.4937
144.6056,93.5616
144.6056,93.5616
144.3633,93.6620
144.3633,93.6620
144.1362,93.7931
143.9281,93.9527
143.7427,94.1381
143.7252,94.1610
143.6688,94.2022
143.6268,94.2095
140.7495,94.2095
140.6824,94.1898
140.6367,94.1370
140.6255,94.0855
140.6255,92.3745
140.6451,92.3075
140.6979,92.2617
140.7495,92.2505
141.2942,92.2505
141.3613,92.2702
141.3671,92.2742
141.4884,92.3623
141.6046,92.4215
141.6708,92.4552
141.6708,92.4552
141.6708,92.4552
141.7505,92.4811
141.8655,92.5185
141.8939,92.5230
142.0676,92.5505
142.0676,92.5505
142.2724,92.5505
142.2724,92.5505
142.4745,92.5185
142.6692,92.4552
142.8516,92.3623
142.9784,92.2702
143.0172,92.2420
143.0172,92.2420
143.0172,92.2420
143.1620,92.0972
143.1620,92.0972
143.1620,92.0972
143.2147,92.0246
143.2823,91.9316
143.3752,91.7492
143.4385,91.5545
143.4705,91.3524
143.4705,91.1476
143.4499,91.0179
143.4385,90.9455
143.3752,90.7508
143.3415,90.6846
143.2823,90.5684
143.2689,90.5500
143.1620,90.4028
143.0172,90.2580
142.8516,90.1377
142.8516,90.1377
142.8516,90.1377
142.7567,90.0893
142.6692,90.0448
142.4745,89.9815
142.3000,89.9539
142.2724,89.9495
142.0676,89.9495
142.0433,89.9534
141.8655,89.9815
141.6708,90.0448
141.4884,90.1377
141.3671,90.2258
141.3013,90.2493
141.2942,90.2495
140.7495,90.2495
140.6824,90.2298
140.6367,90.1770
140.6255,90.1255
140.6255,87.3503
140.6451,87.2833
140.6618,87.2627
141.6478,86.2766
141.7091,86.2431
141.7788,86.2481
141.8348,86.2900
141.8592,86.3554
141.8595,86.3643
141.8595,86.7919
141.8752,86.9108
141.8752,86.9109
141.9339,87.0527
141.9365,87.0589
142.0340,87.1860
142.1010,87.2374
142.1422,87.2938
142.1495,87.3358
142.1495,88.2434
142.1495,88.4166
142.1766,88.5877
142.2301,88.7524
142.3088,88.9068
142.4106,89.0469
142.4106,89.0469
144.5832,91.2195
144.6167,91.2808
144.6195,91.3072
144.6195,91.7000
144.6195,91.7000
144.6300,91.8028
144.6300,91.8028
144.6727,91.9316
144.6852,91.9693
144.7773,92.1187
144.9013,92.2427
145.0507,92.3348
145.2172,92.3900
145.3200,92.4005
146.1200,92.4005
146.1200,92.4005
146.1200,92.4005
146.1763,92.3947
146.2228,92.3900
146.3893,92.3348
146.5387,92.2427
146.6627,92.1187
146.7548,91.9693
146.8100,91.8028
146.8205,91.7000
146.8205,91.7000
149.1800,91.7000
149.1905,91.8027
149.2456,91.9691
149.2456,91.9691
149.3377,92.1183
149.4617,92.2423
149.6109,92.3344
149.6109,92.3344
149.7773,92.3895
149.7773,92.3895
149.8800,92.4000
150.0300,92.4000
150.0300,92.4000
150.0300,91.0500
149.1800,91.0500
149.1800,91.7000
146.8205,91.7000
146.8205,90.8045
146.8205,90.7134
146.8205,90.7058
146.8205,90.7058
146.8205,89.9000
149.1800,89.9000
149.1800,90.5500
150.0300,90.5500
150.0300,89.2000
149.8800,89.2000
149.8800,89.2000
149.7773,89.2105
149.6109,89.2656
149.6109,89.2656
149.4617,89.3577
149.3377,89.4817
149.2456,89.6309
149.2456,89.6309
149.1905,89.7973
149.1905,89.7973
149.1800,89.9000
146.8205,89.9000
146.8205,89.9000
146.8205,89.9000
146.8100,89.7972
146.8100,89.7972
146.7768,89.6971
146.7548,89.6307
146.6627,89.4813
146.5387,89.3573
146.3893,89.2652
146.2228,89.2100
146.2228,89.2100
146.1200,89.1995
146.1200,89.1995
145.7272,89.1995
145.6602,89.1798
145.6395,89.1632
144.3868,87.9105
144.3533,87.8492
144.3505,87.8228
144.3505,87.3358
144.3516,87.3321
144.3507,87.3284
144.3613,87.2988
144.3702,87.2687
144.3735,87.2652
144.3744,87.2626
144.3990,87.2374
144.4000,87.2366
144.4652,87.2114
144.5336,87.2255
144.5836,87.2743
144.5995,87.3350
144.5995,87.5000
144.6100,87.6028
144.6652,87.7693
144.6652,87.7693
144.7573,87.9187
144.7573,87.9187
144.8813,88.0427
144.8813,88.0427
145.0307,88.1348
145.0307,88.1348
145.0307,88.1348
145.1972,88.1900
145.3000,88.2005
145.3000,88.2005
150.7000,88.2005
150.7000,88.2005
150.8028,88.1900
150.9693,88.1348
151.1187,88.0427
151.2427,87.9187
151.3348,87.7693
151.3900,87.6028
151.4005,87.5000
151.4005,81.5000
151.3900,81.3972
151.3348,81.2307
151.3348,81.2307
151.3348,81.2307
151.2427,81.0813
151.2427,81.0813
151.1187,80.9573
151.1187,80.9573
150.9693,80.8652
150.9693,80.8652
150.9693,80.8652
150.9211,80.8492
150.8907,80.8391
150.8333,80.7994
150.8064,80.7348
150.8187,80.6661
150.8663,80.6149
150.8907,80.6037
150.9491,80.5844
150.9491,80.5844
151.0983,80.4923
151.2223,80.3683
151.3144,80.2191
151.3144,80.2191
151.3695,80.0527
151.3695,80.0527
151.3800,79.9500
151.3800,79.9500
151.3800,79.3000
150.4040,79.3000
150.3370,79.2803
150.2912,79.2275
150.2800,79.1760
150.2800,79.0500
150.1540,79.0500
150.0870,79.0303
150.0412,78.9775
150.0300,78.9260
150.0300,77.4500
149.8800,77.4500
149.8800,77.4500
149.7773,77.4605
149.6109,77.5156
149.6109,77.5156
149.4617,77.6077
149.4560,77.6122
149.4551,77.6110
149.4009,77.6406
149.3312,77.6357
149.2752,77.5938
149.2508,77.5283
149.2505,77.5195
149.2505,76.5745
149.2702,76.5075
149.3230,76.4617
149.3745,76.4505
150.4960,76.4505
Z" /> 
<path style="fill:#000000; fill-opacity:1.0000; stroke:none;fill-rule:evenodd;"
d="M 131.1000,75.3827
131.1273,75.4844
131.1799,75.5756
131.2544,75.6501
131.3456,75.7027
131.4473,75.7300
131.4536,75.7300
130.7741,76.4095
130.8186,76.4419
131.0010,76.5348
131.1956,76.5980
131.3977,76.6300
131.6023,76.6300
131.8044,76.5980
131.8044,76.5980
131.8637,76.5787
131.9335,76.5767
131.9934,76.6128
132.0242,76.6755
132.0260,76.6967
132.0260,79.0677
132.0606,79.2417
132.0606,79.2417
132.0825,79.2946
132.0825,79.2946
132.0848,79.3000
132.1285,79.4055
132.1863,79.4920
132.1898,79.4973
132.1898,79.4973
132.2270,79.5530
132.2270,79.5530
133.0107,80.3367
133.0442,80.3980
133.0470,80.4244
133.0470,81.1000
133.0470,81.1000
133.0575,81.2028
133.0575,81.2028
133.1127,81.3693
133.1127,81.3693
133.1299,81.3972
133.2048,81.5187
133.3288,81.6427
133.4782,81.7348
133.6447,81.7900
133.7475,81.8005
134.5475,81.8005
134.5475,81.8005
134.5475,81.8005
134.6038,81.7947
134.6503,81.7900
134.8168,81.7348
134.9662,81.6427
135.0902,81.5187
135.1823,81.3693
135.2375,81.2028
135.2480,81.1000
135.2480,79.3000
135.2375,79.1972
135.1823,79.0307
135.0902,78.8813
134.9662,78.7573
134.8168,78.6652
134.6503,78.6100
134.6503,78.6100
134.5475,78.5995
134.5475,78.5995
133.9510,78.5995
133.8840,78.5798
133.8382,78.5270
133.8270,78.4755
133.8270,77.7245
133.8467,77.6575
133.8995,77.6117
133.9510,77.6005
138.9530,77.6005
139.0005,77.6099
139.0148,77.6159
139.1888,77.6505
139.1888,77.6505
139.1888,77.6505
139.1888,77.6505
139.2766,77.6505
139.3437,77.6702
139.3894,77.7230
139.3994,77.7921
139.3704,77.8557
139.3643,77.8622
139.2090,78.0175
139.2090,78.0175
139.1880,78.0489
139.1880,78.0489
139.1860,78.0519
139.1105,78.1650
139.0916,78.2106
139.0883,78.2185
139.0883,78.2186
139.0426,78.3288
139.0426,78.3288
139.0139,78.4732
139.0139,78.4732
139.0086,78.4997
138.9762,78.5616
138.9155,78.5962
138.8870,78.5995
138.3075,78.5995
138.3075,78.5995
138.2047,78.6100
138.2047,78.6100
138.0382,78.6652
138.0382,78.6652
137.8888,78.7573
137.7648,78.8813
137.6727,79.0307
137.6727,79.0307
137.6175,79.1972
137.6175,79.1972
137.6175,79.1972
137.6070,79.3000
137.6070,81.1000
137.6070,81.1000
137.6175,81.2028
137.6175,81.2028
137.6622,81.3377
137.6646,81.4075
137.6322,81.4643
137.3433,81.7532
137.2820,81.7867
137.2556,81.7895
135.6588,81.7895
135.4848,81.8241
135.4848,81.8241
135.3690,81.8721
135.3690,81.8721
135.3210,81.8920
135.2278,81.9542
135.1735,81.9905
135.1735,81.9905
134.2767,82.8873
134.2154,82.9208
134.2085,82.9221
134.1798,82.9266
134.0151,82.9801
133.9803,82.9978
133.9116,83.0107
133.8469,82.9845
133.8066,82.9273
133.8000,82.8874
133.8000,82.8344
133.8000,82.8344
133.7971,82.7975
133.7971,82.7975
133.7513,82.6398
133.7513,82.6398
133.6677,82.4984
133.6677,82.4984
133.5516,82.3823
133.5516,82.3823
133.4102,82.2987
133.4102,82.2987
133.2525,82.2529
133.2525,82.2529
133.2156,82.2500
132.8125,82.2500
132.8125,82.9260
132.7928,82.9930
132.7400,83.0388
132.6885,83.0500
132.4365,83.0500
132.3695,83.0303
132.3237,82.9775
132.3125,82.9260
132.3125,82.2500
131.9093,82.2500
131.8725,82.2529
131.8725,82.2529
131.7148,82.2987
131.7148,82.2987
131.5734,82.3823
131.5734,82.3823
131.4573,82.4984
131.4573,82.4984
131.4026,82.5910
131.3515,82.6387
131.2827,82.6512
131.2182,82.6246
131.2081,82.6156
128.3646,79.7721
128.3600,79.7651
128.3558,79.7622
128.3377,79.7318
128.3089,79.6623
128.2995,79.6148
128.2995,76.2250
128.3192,76.1580
128.3720,76.1122
128.4411,76.1023
128.4798,76.1145
128.5008,76.1252
128.5008,76.1252
128.5008,76.1252
128.6345,76.1687
128.6955,76.1885
128.7966,76.2045
128.8976,76.2205
128.8976,76.2205
129.1024,76.2205
129.1024,76.2205
129.3045,76.1885
129.4992,76.1252
129.6816,76.0323
129.7746,75.9647
129.8472,75.9120
129.8472,75.9120
129.8472,75.9120
129.9920,75.7672
130.0446,75.6948
130.0999,75.6521
130.1695,75.6461
130.2313,75.6787
130.2629,75.7293
130.2952,75.8290
130.3881,76.0113
130.3881,76.0114
130.4205,76.0559
130.4205,76.0559
131.1000,75.3764
Z" /> 
<path style="fill:#000000; fill-opacity:1.0000; stroke:none;fill-rule:evenodd;"
d="M 151.5455,73.6869
151.5474,73.6867
151.5808,73.6980
151.7510,73.7848
151.9456,73.8480
152.1477,73.8800
152.3523,73.8800
152.5544,73.8480
152.5544,73.8480
152.5872,73.8373
152.6570,73.8353
152.7169,73.8714
152.7477,73.9341
152.7495,73.9553
152.7495,75.5164
152.7298,75.5834
152.6770,75.6292
152.6079,75.6391
152.5692,75.6269
152.4090,75.5452
152.2144,75.4820
152.0123,75.4500
151.8077,75.4500
151.6056,75.4820
151.6056,75.4820
151.5628,75.4959
151.4930,75.4979
151.4331,75.4618
151.4023,75.3991
151.4005,75.3780
151.4005,73.8085
151.4013,73.8059
151.4006,73.8032
151.4111,73.7726
151.4202,73.7415
151.4223,73.7397
151.4232,73.7371
151.4485,73.7169
151.4730,73.6957
151.4757,73.6953
151.4779,73.6936
151.5101,73.6904
151.5421,73.6858
Z" /> 
<path style="fill:#000000; fill-opacity:1.0000; stroke:none;fill-rule:evenodd;"
d="M 132.0741,68.1930
132.1399,68.3070
132.2330,68.4001
132.3470,68.4659
132.4106,68.4830
131.7783,69.1153
131.7783,69.1153
131.8324,69.1546
132.0218,69.2511
132.2239,69.3168
132.4338,69.3500
132.5942,69.3500
132.6612,69.3697
132.7070,69.4225
132.7169,69.4916
132.6879,69.5552
132.6819,69.5617
132.2270,70.0165
132.2270,70.0165
132.1876,70.0756
132.1876,70.0756
132.1285,70.1640
132.0945,70.2460
132.0606,70.3279
132.0606,70.3279
132.0260,70.5019
132.0260,73.9633
132.0063,74.0304
131.9535,74.0761
131.8844,74.0861
131.8637,74.0813
131.8044,74.0620
131.8044,74.0620
131.6023,74.0300
131.3977,74.0300
131.1956,74.0620
131.0010,74.1252
130.8186,74.2181
130.7741,74.2505
130.7741,74.2505
131.4536,74.9300
131.4473,74.9300
131.3456,74.9573
131.2544,75.0099
131.1799,75.0844
131.1273,75.1756
131.1000,75.2773
131.1000,75.2836
130.4205,74.6041
130.3661,74.6084
130.2977,74.5940
130.2480,74.5449
130.2385,74.5231
130.2116,74.4403
130.2052,74.4208
130.1123,74.2384
130.0976,74.2181
129.9920,74.0728
129.9368,74.0176
129.9033,73.9563
129.9005,73.9300
129.9005,69.4745
129.9202,69.4075
129.9730,69.3617
130.0245,69.3505
130.8979,69.3505
130.8979,69.3505
130.9575,69.3441
131.0923,69.2938
131.2075,69.2075
131.2938,69.0923
131.3441,68.9575
131.3505,68.8979
131.3505,68.8873
131.3702,68.8203
131.3868,68.7996
132.0570,68.1294
Z" /> 
<path style="fill:#000000; fill-opacity:1.0000; stroke:none;fill-rule:evenodd;"
d="M 135.0574,60.5667
135.0250,60.6875
135.0250,60.8125
135.0574,60.9333
135.0959,61.0000
134.1500,61.0000
134.1500,61.5250
134.1605,61.6277
134.2156,61.7941
134.2156,61.7941
134.3077,61.9433
134.4317,62.0673
134.5809,62.1594
134.5809,62.1594
134.7473,62.2145
134.7473,62.2145
134.8500,62.2250
135.2500,62.2250
135.2500,62.2250
135.2500,61.1541
135.3167,61.1926
135.4375,61.2250
135.5625,61.2250
135.6833,61.1926
135.7500,61.1541
135.7500,62.2250
136.1500,62.2250
136.1500,62.2250
136.2527,62.2145
136.4191,62.1594
136.4191,62.1594
136.5683,62.0673
136.6923,61.9433
136.7700,61.8175
136.8219,61.7707
136.8909,61.7595
136.9550,61.7874
136.9938,61.8454
136.9995,61.8826
136.9995,62.8235
136.9995,62.8235
136.9995,62.8235
137.0379,63.0168
137.0379,63.0168
137.1134,63.1989
137.1134,63.1989
137.2229,63.3628
137.2229,63.3628
137.3665,63.5065
137.3666,63.5065
138.3437,64.4837
138.3438,64.4837
138.4862,64.6261
138.6501,64.7356
138.6501,64.7356
138.7560,64.7795
138.8322,64.8111
138.9288,64.8303
139.0081,64.8460
139.0255,64.8495
139.0255,64.8495
139.0255,64.8495
139.2225,64.8495
140.7181,64.8495
140.7851,64.8692
140.8058,64.8858
142.8077,66.8878
142.8077,66.8878
142.8869,66.9670
142.9471,67.0271
143.1109,67.1366
143.1110,67.1366
143.1682,67.1604
143.2930,67.2120
143.4863,67.2505
143.4863,67.2505
143.4863,67.2505
146.3871,67.2505
146.4542,67.2702
146.4999,67.3230
146.5099,67.3921
146.5048,67.4135
146.4605,67.5473
146.4605,67.5473
146.4500,67.6500
146.4500,68.0000
147.4343,68.0000
147.4299,68.0044
147.3773,68.0956
147.3500,68.1973
147.3500,68.3027
147.3773,68.4044
147.4299,68.4956
147.4343,68.5000
146.4500,68.5000
146.4500,68.8500
146.4564,68.9129
146.4437,68.9816
146.3958,69.0325
146.3331,69.0495
145.3000,69.0495
145.1972,69.0600
145.0307,69.1152
145.0307,69.1152
144.8813,69.2073
144.8813,69.2073
144.7573,69.3313
144.7573,69.3313
144.6652,69.4807
144.6652,69.4807
144.6100,69.6472
144.5995,69.7500
144.5995,72.4537
144.5798,72.5207
144.5270,72.5665
144.4579,72.5764
144.3943,72.5474
144.3878,72.5413
141.1087,69.2622
141.0752,69.2009
141.0802,69.1312
141.1220,69.0752
141.1400,69.0640
141.2076,69.0296
141.3795,68.9047
141.3795,68.9047
141.5297,68.7545
141.5297,68.7545
141.6546,68.5826
141.7511,68.3932
141.8168,68.1911
141.8168,68.1911
141.8500,67.9812
141.8500,67.9750
140.9330,67.9750
140.9659,67.9180
141.0000,67.7908
141.0000,67.6592
140.9659,67.5320
140.9330,67.4750
141.8500,67.4750
141.8500,67.4688
141.8168,67.2589
141.8168,67.2589
141.7511,67.0568
141.6546,66.8674
141.5297,66.6955
141.5297,66.6955
141.3795,66.5453
141.3795,66.5453
141.2076,66.4204
141.0182,66.3239
140.8161,66.2582
140.7500,66.2478
140.7500,67.2920
140.6930,67.2591
140.5658,67.2250
140.4342,67.2250
140.3070,67.2591
140.2500,67.2920
140.2500,66.2478
140.2500,66.2478
140.1839,66.2582
139.9818,66.3239
139.7924,66.4204
139.6205,66.5453
139.4817,66.6841
139.4203,66.7176
139.3507,66.7126
139.2947,66.6708
139.2884,66.6616
139.1927,66.5063
139.0687,66.3823
139.0687,66.3823
138.9193,66.2902
138.7528,66.2350
138.7528,66.2350
138.6500,66.2245
137.3500,66.2245
137.3500,66.2245
137.2472,66.2350
137.2472,66.2350
137.0807,66.2902
137.0807,66.2902
136.9313,66.3823
136.8073,66.5063
136.7152,66.6557
136.7152,66.6557
136.6874,66.7395
136.6476,66.7969
136.5831,66.8238
136.5697,66.8245
135.7034,66.8245
135.5294,66.8591
135.5294,66.8591
135.4475,66.8930
135.4475,66.8930
135.3655,66.9270
135.2854,66.9805
135.2180,67.0255
135.2180,67.0255
134.1017,68.1419
134.0404,68.1754
133.9707,68.1704
133.9147,68.1285
133.8903,68.0631
133.8900,68.0542
133.8900,67.8938
133.8568,67.6839
133.8568,67.6839
133.7911,67.4818
133.6946,67.2924
133.6553,67.2383
133.6553,67.2383
133.0230,67.8706
133.0059,67.8070
132.9401,67.6930
132.8470,67.5999
132.7330,67.5341
132.6694,67.5170
133.3017,66.8847
133.2475,66.8454
133.0582,66.7489
132.8561,66.6832
132.6462,66.6500
132.4338,66.6500
132.2239,66.6832
132.2239,66.6832
132.0218,66.7489
131.8324,66.8454
131.7783,66.8847
131.7783,66.8847
132.4106,67.5170
132.3470,67.5341
132.2330,67.5999
132.1399,67.6930
132.0741,67.8070
132.0570,67.8706
131.3868,67.2004
131.3533,67.1390
131.3533,67.1390
131.3505,67.1260
131.3505,67.1021
131.3441,67.0425
131.3159,66.9670
131.2938,66.9077
131.2938,66.9077
131.2075,66.7925
131.2075,66.7925
131.0923,66.7062
131.0923,66.7062
130.9575,66.6559
130.9575,66.6559
130.8979,66.6495
130.8979,66.6495
130.8979,66.6495
130.8979,66.6495
130.3531,66.6495
130.2860,66.6298
130.2403,66.5770
130.2303,66.5079
130.2351,66.4872
130.2685,66.3845
130.2685,66.3845
130.2685,66.3845
130.3005,66.1824
130.3005,66.1090
130.3202,66.0420
130.3730,65.9963
130.4421,65.9863
130.5057,66.0153
130.5122,66.0214
130.6528,66.1620
130.7709,66.2478
130.8184,66.2823
130.9001,66.3239
131.0008,66.3752
131.0008,66.3752
131.0008,66.3752
131.1051,66.4091
131.1955,66.4385
131.2966,66.4545
131.3976,66.4705
131.3976,66.4705
131.6024,66.4705
131.6024,66.4705
131.8045,66.4385
131.9992,66.3752
132.1816,66.2823
132.3192,66.1824
132.3472,66.1620
132.3472,66.1620
132.3472,66.1620
132.4920,66.0172
132.4920,66.0172
132.4920,66.0172
132.5447,65.9446
132.6123,65.8516
132.7052,65.6692
132.7685,65.4745
132.8005,65.2724
132.8005,65.0676
132.7700,64.8748
132.7685,64.8655
132.7052,64.6708
132.6715,64.6046
132.6123,64.4884
132.5997,64.4710
132.5242,64.3671
132.5007,64.3013
132.5005,64.2942
132.5005,62.2158
132.5202,62.1487
132.5368,62.1281
134.1286,60.5363
134.1899,60.5028
134.2163,60.5000
135.0959,60.5000
Z" /> 
<path style="fill:#000000; fill-opacity:1.0000; stroke:none;fill-rule:evenodd;"
d="M 150.1925,47.7702
150.2383,47.8230
150.2495,47.8745
150.2495,55.1841
150.2495,55.3159
150.2546,55.3348
150.2836,55.4432
150.2849,55.4455
150.3495,55.5573
150.4427,55.6505
150.5568,55.7164
150.6841,55.7505
152.6255,55.7505
152.6925,55.7702
152.7383,55.8230
152.7495,55.8745
152.7495,61.0442
152.7298,61.1112
152.6770,61.1570
152.6079,61.1669
152.5872,61.1621
152.5545,61.1515
152.5545,61.1515
152.4192,61.1301
152.3524,61.1195
152.1476,61.1195
152.1233,61.1234
151.9455,61.1515
151.7508,61.2148
151.5684,61.3077
151.4028,61.4280
151.2580,61.5728
151.1377,61.7384
151.0448,61.9208
150.9815,62.1155
150.9804,62.1202
150.9792,62.1199
150.9517,62.1780
150.8924,62.2150
150.8591,62.2195
143.8287,62.2195
143.7617,62.1998
143.7159,62.1470
143.7060,62.0779
143.7350,62.0143
143.7558,61.9952
143.8798,61.9051
143.8798,61.9051
143.8798,61.9051
144.0301,61.7548
144.0301,61.7548
144.0301,61.7548
144.1550,61.5828
144.1550,61.5828
144.1551,61.5828
144.2516,61.3934
144.3172,61.1912
144.3505,60.9813
144.3505,60.7244
144.3702,60.6573
144.3868,60.6367
146.4495,58.5740
146.4495,58.5740
146.5480,58.4266
146.5480,58.4266
146.5480,58.4265
146.6159,58.2627
146.6505,58.0887
146.6505,57.9113
146.6505,56.7400
146.6702,56.6730
146.6868,56.6524
146.7420,56.5972
146.7420,56.5972
146.7420,56.5972
146.7947,56.5246
146.8623,56.4316
146.9552,56.2492
147.0185,56.0545
147.0505,55.8524
147.0505,55.6476
147.0185,55.4455
147.0105,55.4208
146.9825,55.3348
146.9552,55.2508
146.9552,55.2508
146.9552,55.2508
146.9212,55.1841
146.8623,55.0684
146.8539,55.0568
146.7420,54.9028
146.5972,54.7580
146.4316,54.6377
146.4316,54.6377
146.4316,54.6377
146.3747,54.6087
146.2492,54.5448
146.0545,54.4815
145.8608,54.4508
145.8524,54.4495
145.6476,54.4495
145.6392,54.4508
145.4455,54.4815
145.2508,54.5448
145.0684,54.6377
144.9028,54.7580
144.7580,54.9028
144.6377,55.0684
144.5448,55.2508
144.5434,55.2549
144.5040,55.3126
144.4396,55.3398
144.3708,55.3279
144.3193,55.2806
144.3015,55.2166
144.3015,50.5623
144.3015,50.5623
144.3003,50.5564
144.3003,50.5564
144.2669,50.3883
144.2669,50.3883
144.2295,50.2980
144.1990,50.2245
144.1399,50.1360
144.1370,50.1316
144.1005,50.0770
143.4212,49.3977
146.5300,49.3977
146.5300,49.6023
146.5620,49.8044
146.6252,49.9990
146.7181,50.1813
146.7181,50.1814
146.7505,50.2259
146.7505,50.2259
147.4300,49.5464
147.4300,49.5527
147.4573,49.6544
147.5099,49.7456
147.5844,49.8201
147.6756,49.8727
147.7773,49.9000
147.7836,49.9000
147.1041,50.5795
147.1487,50.6119
147.3310,50.7048
147.5256,50.7680
147.7277,50.8000
147.9323,50.8000
148.1344,50.7680
148.3290,50.7048
148.5113,50.6119
148.5559,50.5795
147.8764,49.9000
147.8827,49.9000
147.9844,49.8727
148.0756,49.8201
148.1501,49.7456
148.2027,49.6544
148.2300,49.5527
148.2300,49.5464
148.9095,50.2259
148.9095,50.2259
148.9419,50.1813
149.0348,49.9990
149.0980,49.8044
149.1300,49.6023
149.1300,49.3977
149.0980,49.1956
149.0348,49.0010
148.9419,48.8186
148.9095,48.7741
148.9095,48.7741
148.2300,49.4536
148.2300,49.4473
148.2027,49.3456
148.1501,49.2544
148.0756,49.1799
147.9844,49.1273
147.8827,49.1000
147.8764,49.1000
148.5559,48.4205
148.5559,48.4205
148.5114,48.3881
148.5113,48.3881
148.3290,48.2952
148.1344,48.2320
147.9323,48.2000
147.7277,48.2000
147.5256,48.2320
147.3310,48.2952
147.1486,48.3881
147.1041,48.4205
147.1041,48.4205
147.7836,49.1000
147.7773,49.1000
147.6756,49.1273
147.5844,49.1799
147.5099,49.2544
147.4573,49.3456
147.4300,49.4473
147.4300,49.4536
146.7505,48.7741
146.7505,48.7741
146.7181,48.8186
146.6252,49.0010
146.5620,49.1956
146.5300,49.3977
143.4212,49.3977
141.9857,47.9622
141.9522,47.9009
141.9572,47.8312
141.9991,47.7752
142.0645,47.7508
142.0734,47.7505
150.1255,47.7505
Z" /> 
<path style="fill:#000000; fill-opacity:1.0000; stroke:none;fill-rule:evenodd;"
d="M 133.9937,47.7702
134.0394,47.8230
134.0494,47.8921
134.0204,47.9557
134.0143,47.9622
132.4339,49.5426
132.3725,49.5761
132.3028,49.5711
132.2469,49.5293
132.2282,49.4933
132.2048,49.4210
132.1119,49.2386
132.0795,49.1941
132.0795,49.1941
131.4000,49.8736
131.4000,49.8673
131.3727,49.7656
131.3201,49.6744
131.2456,49.5999
131.1544,49.5473
131.0527,49.5200
131.0464,49.5200
131.7259,48.8405
131.7259,48.8405
131.6814,48.8081
131.6813,48.8081
131.4990,48.7152
131.3044,48.6520
131.1023,48.6200
130.8977,48.6200
130.6956,48.6520
130.5010,48.7152
130.3186,48.8081
130.2741,48.8405
130.2741,48.8405
130.9536,49.5200
130.9473,49.5200
130.8456,49.5473
130.7544,49.5999
130.6799,49.6744
130.6273,49.7656
130.6000,49.8673
130.6000,49.8736
129.9205,49.1941
129.9205,49.1941
129.8881,49.2386
129.7952,49.4210
129.7320,49.6156
129.7000,49.8177
129.7000,50.0223
129.7320,50.2244
129.7952,50.4190
129.8881,50.6013
129.8881,50.6014
129.9205,50.6459
129.9205,50.6459
130.6000,49.9664
130.6000,49.9727
130.6273,50.0744
130.6799,50.1656
130.7544,50.2401
130.8456,50.2927
130.9473,50.3200
130.9536,50.3200
130.2741,50.9995
130.3186,51.0319
130.5010,51.1248
130.6956,51.1880
130.8977,51.2200
131.1023,51.2200
131.3044,51.1880
131.4990,51.1248
131.6813,51.0319
131.7259,50.9995
131.0464,50.3200
131.0527,50.3200
131.1544,50.2927
131.2456,50.2401
131.3201,50.1656
131.3727,50.0744
131.4000,49.9727
131.4000,49.9664
132.0632,50.6296
132.0967,50.6910
132.0995,50.7173
132.0995,53.4770
132.0798,53.5440
132.0632,53.5646
130.3265,55.3013
130.2652,55.3348
130.1955,55.3298
130.1396,55.2879
130.1283,55.2699
130.1123,55.2384
130.1123,55.2384
130.1123,55.2384
129.9920,55.0728
129.8472,54.9280
129.6816,54.8077
129.6816,54.8077
129.6816,54.8077
129.5841,54.7580
129.4992,54.7148
129.3045,54.6515
129.1300,54.6239
129.1024,54.6195
128.8976,54.6195
128.7939,54.6359
128.7246,54.6270
128.6712,54.5820
128.6505,54.5152
128.6505,54.5135
128.6505,54.2400
128.6702,54.1730
128.6868,54.1524
128.7420,54.0972
128.7420,54.0972
128.7420,54.0972
128.7947,54.0246
128.8623,53.9316
128.9552,53.7492
129.0185,53.5545
129.0505,53.3524
129.0505,53.1476
129.0485,53.1352
129.0185,52.9455
128.9552,52.7508
128.9215,52.6846
128.8623,52.5684
128.8546,52.5577
128.7420,52.4028
128.5972,52.2580
128.4316,52.1377
128.4316,52.1377
128.4316,52.1377
128.3747,52.1087
128.2492,52.0448
128.0545,51.9815
127.8800,51.9539
127.8524,51.9495
127.6476,51.9495
127.6233,51.9534
127.4455,51.9815
127.2508,52.0448
127.0684,52.1377
126.9028,52.2580
126.7580,52.4028
126.6377,52.5684
126.5448,52.7508
126.4924,52.9119
126.4530,52.9696
126.3886,52.9968
126.3198,52.9849
126.2683,52.9376
126.2505,52.8736
126.2505,47.8745
126.2702,47.8075
126.3230,47.7617
126.3745,47.7505
133.9266,47.7505
Z" /> 
</g> 
</svg>
